<?xml version="1.0" encoding="UTF-8"?>
<svg xmlns="http://www.w3.org/2000/svg" viewBox="0 0 500 500">
  <defs>
    <style>
      .cls-1 {
        fill: #dda694;
      }

      .cls-1, .cls-2, .cls-3, .cls-4, .cls-5, .cls-6, .cls-7, .cls-8, .cls-9, .cls-10, .cls-11, .cls-12, .cls-13, .cls-14, .cls-15, .cls-16, .cls-17, .cls-18, .cls-19 {
        stroke-width: 0px;
      }

      .cls-2 {
        fill: #4e5a29;
      }

      .cls-3 {
        fill: #e877c0;
      }

      .cls-4 {
        fill: #3c441a;
      }

      .cls-5 {
        fill: #d3a1b8;
      }

      .cls-6 {
        fill: #e89f2a;
      }

      .cls-7 {
        fill: #c4913d;
      }

      .cls-8 {
        fill: #695eb5;
      }

      .cls-9 {
        fill: #edc4d5;
      }

      .cls-10 {
        fill: #aebcc9;
      }

      .cls-11 {
        fill: #b24f94;
      }

      .cls-12 {
        fill: #7e8c45;
      }

      .cls-13 {
        fill: #f0e8e6;
      }

      .cls-14 {
        fill: #313f0c;
      }

      .cls-15 {
        fill: #eab65b;
      }

      .cls-16 {
        fill: #fff;
      }

      .cls-17 {
        fill: #9483de;
      }

      .cls-18 {
        fill: #c98da9;
      }

      .cls-19 {
        fill: #f7cab7;
      }
    </style>
  </defs>
  <g id="BACKGROUND">
    <rect class="cls-16" width="500" height="500"/>
  </g>
  <g id="OBJECTS">
    <g>
      <g>
        <path class="cls-19" d="M155.86,413.58s-20.59-3.05-16.78-52.62c3.81-49.57,9.91-66.34,9.91-66.34h37.36l-10.68,90.74-19.83,28.21Z"/>
        <path class="cls-19" d="M333.54,399.85s21.6.3,18.45-49.31-9.02-66.47-9.02-66.47l-37.36-.5,9.46,90.88,18.47,25.4Z"/>
        <path class="cls-13" d="M129.92,320.29c1.55,2.52,4.17,4.77,7.3,3.91,1.44-.3,2.78-.93,4.22-1.21,7.33-.89,10.18,9.74,17.5,9.37,1.49-.02,2.82-.83,4.28-.95,4.17.14,7.03,4.69,12.48,5.03,2.86,20.92,7.53,41.59,13.68,61.79-16.35,32.2-28.39,66.55-36.42,101.76h186.99c-8.07-35.19-20.06-69.57-36.43-101.76,6.15-20.2,10.82-40.86,13.68-61.79,5.53-.35,8.22-4.86,12.48-5.03,9.8,3.74,11.53-4.98,18.9-8.21,2.39-.93,4.78.49,7.11.99,3.15.86,5.74-1.4,7.3-3.91,2.63-3.69,5.24-7.39,7.87-11.08.19-.26.12-.72-.12-.94-4.39-3.94-8.09-8.55-11.28-13.5-8.16-12.67-13.15-27.04-20.9-39.93-3.24-5.37-7.06-10.91-12.9-13.66-26.29-7.23-54.15-7.86-81.32-7.2-25.77-.82-52.19.48-77.09,7.2-8.56,4.26-12.86,13.54-17.26,21.54-8.15,15.77-14.29,33.4-27.82,45.55-.24.21-.31.67-.12.94,2.63,3.69,5.24,7.4,7.87,11.08Z"/>
        <g>
          <path class="cls-12" d="M234.91,434.05c-11.27-23.44-29.54-43.45-51.87-56.78,13.02,22.17,30.64,42.29,51.87,56.78Z"/>
          <path class="cls-12" d="M252.26,394.78c-1.07-21.84,11.31-43.78,30.55-54.16-6.57,21.31-14.64,38.55-30.55,54.16Z"/>
          <g>
            <path class="cls-2" d="M312.79,199.91c-1.43-4.76-.94-10.69-4.89-14.29-1.91-1.71-4.55-2.61-6.65-1.15,3.8-3.17,6.45-8.03,6.54-12.98-6.18.15-12.05,3.97-14.9,9.45.34-6.01-4.5-7.95-9.45-9.82.43-3.19.85-6.38,1.27-9.56,2.41-.12,4.79-.49,7.05-1.16-2.11-2.38-3.61-6-5.8-8.58.03-.22.06-.44.08-.66,6.38-4.55,10.57-12.04,11.08-19.86-2.45.67-4.4,1.97-5.95,3.66.13-.9.18-1.81.14-2.71-.93.63-1.99,1.09-3.14,1.45.39-3.27.76-6.52,1.13-9.77.19-.21.37-.42.55-.63-.24.83-.43,1.67-.56,2.51,7.2-3.13,12.48-10.32,13.31-18.13-2.8,1.67-5.44,3.88-7.64,6.45.95-2.86,1.45-5.86,1.43-8.87-1.18.57-2.03,1.41-2.52,2.49.23-1.26.27-2.67,0-3.67-2.15,1.52-2.63,4.46-2.93,7.08-.31,2.75-.68,4.98-1.04,7.28,1.36-12.41,2.57-24.68,3.57-36.78,7.13-7.2,5.88-18.83,3.75-28.05-4.87,9.22-7.28,18.96-4.9,29.11.05-.04.09-.08.14-.12-.41,3.04-.82,6.08-1.24,9.12-.28-7.21-3.91-14.31-9.79-18.53,1.17,8.42,4.25,16.34,9.14,23.27-.72,5.27-1.45,10.54-2.18,15.82-.17-4.49-1.14-8.87-3.61-12.78-.9,1.27-1.36,2.76-1.4,4.29-.37-.73-1.06-1.38-1.67-1.37-1.07.02-1.91,1.06-2.06,2.12-.29,2.2,1.5,4,1.89,6.06-.66.44-1.83-.9-1.78-.1.07.22.14.44.21.66-1.2-1.39-2.55-2.66-4.03-3.76.27,9.22,4.11,17.74,9.61,25.14-.09.62-.18,1.25-.26,1.87-6.83,1.29-14.98.95-16.26,8.94-1.78-6.58-7.2-12.08-13.82-13.7-1.07,5.35.64,11.22,3.99,15.52-1.92-2.07-4.97-1.73-7.43-.34-5.1,2.95-5.97,9.45-8.64,14.24,4.53,1.61,9.93,1,13.92-1.69-.15.12-.29.24-.43.36,0,.01,0,.02,0,.03-4.15,3.82-1.62,10.57-2.37,15.53,4.29-2.93,10.31-2.37,14.39-5.65.64-.53,1.23-1.33,1.7-2.25,1.23,1.29,2.47,2.73,3.71,4.13.24.89.56,1.74.96,2.55.4,3.08,1.74,6.12,3.76,8.49-.16,1.13-.32,2.26-.48,3.38-3.42,1.46-5.88,5.53-8.82,7.68,2.26,1.25,4.75,2.14,7.34,2.72-.54,3.8-1.08,7.6-1.62,11.4-1.51.35-3.1.6-4.68.86-2.85-6.82-7.58-12.85-13.75-16.95,1.29,6.77,3.12,13.22,5.57,19.41-1.85,1.18-3.19,2.97-3.59,5.84-1.85-6.37-7.22-11.63-13.69-13.09-.94,5.22.83,10.9,4.15,15.04-1.91-1.98-4.87-1.59-7.24-.19-4.91,2.97-5.64,9.3-8.15,14.01,4.44,1.49,9.68.79,13.51-1.89-.14.12-.28.24-.41.36,0,.01,0,.02,0,.03-3.97,3.79-1.39,10.32-2.03,15.15,4.12-2.92,9.99-2.49,13.9-5.75.62-.53,1.18-1.32,1.62-2.22,1.22,1.23,2.45,2.61,3.68,3.95.87,2.95,2.6,5.43,5.18,7.64-.08.61-.17,1.21-.25,1.82-3.28-.94-6.57-1.86-8.77-3.82-1.07,5.95,2,12.71,7.06,16.16-.05.35-.1.71-.15,1.06-4.89.69-7.44,6.62-10.96,9.66,2.89,1.3,6.07,2.08,9.31,2.4-7.63,56.06-14.65,112.19-19.96,168.53.37,2.38-6.59,50.33-1.1,41.82,1.87-15.49,2.75-31.13,4.24-46.66.89-11.67,1.96-23.45,3.16-35.29,8.53-25.05,41.59-35.74,47.87-62.07-23.37,9.21-41.71,34.62-47.6,59.53,3.75-36.37,8.79-73.43,14.14-110.48,2.65-1.84,4.55-4.03,5.71-6.75,1.37-1.18,2.74-2.4,4.09-3.48.33.94.79,1.78,1.34,2.37,3.48,3.66,9.31,3.9,13.04,7.26-.08-4.84,3.21-10.97-.27-15.16,0-.01,0-.02,0-.03-.12-.14-.24-.27-.37-.4,3.47,3.09,8.56,4.37,13.1,3.41-1.93-4.93-1.93-11.26-6.43-14.74-2.18-1.65-5.05-2.37-7.16-.64,3.75-3.69,6.15-9.09,5.81-14.34-6.54.7-12.45,5.26-14.99,11.33-.13-5.27-3.74-7.31-8.04-8.74.13-.91.27-1.82.4-2.74,9.51-6.22,19.06-12.52,27.57-20.05-11.42-.34-22.38,6.71-27.12,16.99.62-4.2,1.23-8.39,1.85-12.58,2.18-.18,4.32-.57,6.37-1.22-1.86-2.03-3.28-5.03-5.11-7.41.51-3.5,1.02-6.99,1.52-10.47,1.16-1.8,2-3.81,2.41-5.87,1.43-1.19,2.56-2.57,3.42-4.19,1.37-1,2.75-2.04,4.09-2.94.24.9.6,1.72,1.07,2.32,2.97,3.7,8.42,4.37,11.65,7.79.3-4.54,3.84-10.03.91-14.22,0,0,0-.02,0-.03-.1-.14-.21-.27-.31-.4,3.01,3.16,7.68,4.75,12,4.2ZM271.33,275.35c-.71,2.63-1.65,5.46-2.69,7.97-.72.88-1.32,1.86-1.77,2.9.02-.15.04-.29.06-.44.97-2.33,2.16-4.67,1.18-7.17-.06.1-.12.21-.18.31.17-1.17.34-2.33.51-3.5.96.01,1.93-.01,2.88-.07ZM282.17,183.51s.03.06.1.09c-.18-.04-.35-.07-.52-.09.01-.08.02-.16.03-.23.13.08.26.16.39.24ZM279.93,169.74c-.11-1.74-.51-3.47-1.21-5.07-.76,1.37-.81,2.78-.59,4.2-.3-.16-.6-.34-.88-.51-.59-2.43-1.07-5.05-1.38-7.48,1.84.37,3.72.61,5.6.69-.39,2.78-.79,5.55-1.18,8.33-.12-.05-.24-.1-.35-.15ZM283.18,149.51c-.96-.5-2.05-.79-3.32-.8.08-.02.13-.04.13-.07,1.25-.42,2.45-1.03,3.56-1.77-.12.88-.25,1.76-.37,2.64ZM283.45,195.15c-.87,2.4-1.96,4.99-3.13,7.26-.56.58-1.06,1.22-1.49,1.9.02-.14.04-.27.06-.41.99-1.89,1.95-3.79,1.3-5.95-.2.28-.4.57-.58.87.18-1.3.37-2.59.55-3.89,1.09.13,2.19.2,3.29.22ZM273.5,217.67c-.03.23-.07.46-.1.69-.02-.19-.03-.38-.05-.58.05-.04.1-.08.15-.12ZM269.29,245.28s.02.02.04.03c-.01-.03-.03-.06-.04-.09-.21-1.79-.85-3.53-1.84-5.05-.75-2.63-1.36-5.58-1.76-8.29,1.88.34,3.81.54,5.73.58-.7,4.97-1.39,9.95-2.09,14.93.06-.7.04-1.4-.04-2.09Z"/>
            <path class="cls-2" d="M268.52,235.5c-1.68,3.16.46,6.47.88,9.67.82-3.2.5-6.67-.88-9.67Z"/>
            <path class="cls-2" d="M232.36,268.81c2.25,20.89,21.19,38.42,26.06,58.86,1.73-22.29-8.39-45.15-26.06-58.86Z"/>
          </g>
          <g>
            <path class="cls-4" d="M305.59,232.69c-2.26,2.41-3.66,5.6-3.9,8.89,1.41-2.9,4.49-5.37,3.9-8.89Z"/>
            <path class="cls-4" d="M364.22,190.42c-7.6,9.35-15.81,18.9-26.74,24.34,1.62-.71,14.92-2.56,14.65-.72-1.75,10.13-5.7,19.87-11.32,28.47,1.29-.85,17.97-2.05,15.84.63-7.08,5.1-11.54,12.86-17.84,18.78-5.1,4.82-11.04,8.69-17.34,11.76.78,1.86.67,4.02-.7,5.79,2.75-1.44,5.61-2.68,8.55-3.71-2.39,5.21-5.87,9.78-9.9,14.04,2.7-.5,5.45-.74,8.17-.75.75,0,1.14.79.82,1.42-2.61,5.15-5.45,10.18-8.56,15.04-5.03,7.85-10.7,15.28-16.93,22.21-8.06,15.5-17.67,30.03-27.09,44.36,5-5.04,10.99-9.1,17.57-11.78.33-.14.61.25.54.54-2.23,9.55-7.27,18.16-12.95,26.06,4.1-4.42,8.75-8.28,13.67-11.75,1.29,11.26-8.02,23.73-12.93,34.21-3.8,6.68-7.89,14.46-12.59,21.19-2.17,7.75-4.38,15.48-6.61,23.21-1.23,4.28-2.47,8.57-3.7,12.85-.62,2.14-1.23,4.28-1.85,6.43-.61,2.11-1.04,4.36-2.14,6.27-.51.88-1.98.52-1.94-.53.09-2.52,1.1-5.01,1.79-7.42.68-2.36,1.36-4.71,2.04-7.07,2.44-8.46,4.87-16.92,7.33-25.38.27-.93.54-1.86.82-2.8-1.59,1.86-3.25,3.56-4.99,5.02-.1.18-.2.37-.31.55-6.13,11.24-11.23,23.03-15.22,35.2-.05.15-.12.28-.2.4-.18,1.02-1.66,1.41-2.21.41-.5-.9-.68-1.94-.93-2.93-.24-.95-.49-1.89-.74-2.84-.5-1.89-1-3.78-1.52-5.66-1.63-5.93-3.38-11.82-5.18-17.69.76,3.8,1.5,7.61,2.26,11.41.66,3.34,1.32,6.69,1.98,10.03.23,1.19.92,3.49-.95,3.74-1.13.15-2.08-1.3-1.41-2.1-.08-.48-.23-.98-.32-1.43-.15-.77-.3-1.53-.45-2.3-.31-1.59-.63-3.18-.94-4.77-1.58-7.99-3.22-15.97-4.65-23.99-.19-.16-.38-.32-.56-.48.21,4.5.39,9.01.57,13.51.14,3.39.27,6.78.41,10.17.14,3.38.38,6.78.37,10.17,0,1.69-2.45,1.63-2.59,0-.33-3.88-.36-7.79-.52-11.67-.27-6.78-.54-13.56-.81-20.34-.2-5.07-.42-10.15-.45-15.23-4.35-3.94-33.66-31.52-40.92-47.39,2.94,2.19,5.8,4.51,8.55,6.95-3.35-8.52-6.08-17.28-8.19-26.11,2.62,2.66,5,5.45,7.18,8.35-.05-.77-3-8.9-1.36-7.95,1.73.97,3.47,1.98,5.17,3.05-.22-.45-.45-.91-.66-1.37-1.93-4.1-3.61-8.32-5.04-12.62-9.15-9.24-17.97-18.64-20.22-31.65,5.48,2.53,10.61,5.98,15.31,10.11-.12-.94-.23-1.88-.33-2.83-.2-1.93-.35-3.86-.46-5.79-7.24-5.48-13.25-12.11-16.08-19.76,2.22.2,4.42.53,6.59.98-3.25-2.99-6.14-6.4-8.57-10.14-.42-.64.14-1.38.82-1.43,4.1-.25,8.16.13,12.11,1.09-.84-.66-1.67-1.32-2.48-2.01-3.36-2.83-6.4-6.06-8.59-9.85-4.69,3.18-10.32-2.55-6.54-9.19-4.9.85-9.09-6.14-5.06-9.56-3.36-2.43-3.45-6.1-1.7-8.64-11.06-2.06-20.52-8.69-29.03-15.73-.82-1.46,13.33-9.99,15.32-10.4-11.75-1.39-18.83-8.29-28.03-14.51-.29-.15-.29-.53-.1-.75,4.91-5.66,11.98-9.41,19.41-10.38-6.55-1.17-12.96-3.19-19.05-5.87-.29-.13-.31-.57-.1-.77,6.77-6.4,16.82-7.28,25.66-6.13-8.91-3.87-16.9-9.85-23.08-17.35-.18-.22-.18-.56.09-.72,6.03-3.52,13.37-4.73,20.21-3.31-6.4-5.09-11.8-11.45-15.78-18.6-.15-.27.03-.74.4-.69,7.38.97,15.1,1.91,21.57,5.85-3.51-7.13-4.81-15.24-6.05-23.04-.26-2.29,10.53,7.43,11.56,8.09-.47-2.73-.36-5.56.28-8.25-2.04-.83-3.34-3.85-1.5-5.42-.17-.14.04-.3.14-.41-.79-1.3-1.81-2.89-1.5-4.33.46-2.44,3.8-3.31,5.4-1.42-.37-2.5,1.69-2.87,3.31-1.44,1.61,1.26,2.76,3.1,3.2,5.09.23-.46.39-1.15.7-1.48-.01-2.52.24-5.03.7-7.51-4.95-6.11-7.83-13.92-7.83-21.8,4.12,3.34,7.35,7.36,9.6,11.86-1.91-13.74-12.01-25.11-10.88-39.21.08-1.16-.78-2.7-.67-3.86.05-4.29,6-5.88,5.94-1.36.08.11-.09.21-.11.32,5.48-1.35,4.75,10.94,4.93,14.23,2.06,6.76,2.19,13.88.66,20.96,1.17,4.6,2.32,9.21,3.46,13.81.07.07.14.13.2.2-.36-2.38,1.56-2.9,3.19-1.52.22-1.51.51-3,.86-4.47-.45-1.59-.39-3.32.18-4.88-2.67-4.98-4.15-10.6-4.16-16.26,4.02,3.26,7.2,7.17,9.43,11.54.05-.02.04-.01.09-.03-1.92-13.54-11.94-24.84-10.79-38.86.08-1.16-.78-2.7-.67-3.86.05-4.29,6-5.88,5.94-1.36.08.11-.09.21-.11.32,5.48-1.35,4.75,10.94,4.93,14.23,2.06,6.76,2.19,13.88.66,20.96.67,2.65,1.34,5.31,2,7.96,2.1.36,3.94,2.05,4.95,3.9.21-1.29.46-2.58.76-3.84-.38-2.04-.48-4.13-.73-6.2.38.26.75.52,1.12.8.48-1.58,2.81-3.04,3.89-1.26-.33-3.44,3.69-4.8,5.86-2.21-.61-8.26-1.2-16.52-1.77-24.79-4.97-7.88-3.01-17.75-.62-26.22,4.33,9.48,6.17,19.35,3.21,29.35-.04-.04-.08-.08-.12-.11.23,3.03.47,6.05.71,9.08.71-7.16,4.74-14,10.84-17.86-1.66,8.33-5.18,16.05-10.46,22.68.42,5.25.84,10.5,1.26,15.74.46-4.4,1.75-8.78,4.33-12.36.82,1.32,1.2,2.83,1.15,4.36,1.15-2.21,3.51-1.15,3.68.96.16,2.21-1.72,3.9-2.24,5.94.94.5,2.18-1.16,1.69.49,2.21-1.66,3.23-4.18,5.08-6.19-.85-4.35-.89-8.86-.03-13.21,3.39,4.08,5.79,8.65,7.12,13.5.79-13.87-6.9-26.98-3.05-40.58.3-1.12-.24-2.8.1-3.91.88-4.2,7.02-4.6,6.09-.18.06.13-.13.19-.17.3,5.64-.26,2.54,11.65,2.07,14.91.71,7.03-.55,14.04-3.43,20.69.34,6.4.65,12.81.94,19.21.46-.7,1.22-1.21,2.05-1.38.76-2.92,1.77-5.77,3.02-8.47-.38-2.57,1.94-8.59,5.2-6.24-.39-3.46-.27-6.97.4-10.39,3.23,4.13,6.03,8.49,7.12,13.5.8-13.85-6.9-26.97-3.05-40.58.3-1.12-.24-2.8.1-3.91.88-4.2,7.02-4.6,6.09-.18.06.13-.13.19-.17.3,5.64-.26,2.54,11.65,2.07,14.91.71,7.03-.55,14.04-3.43,20.69.5,9.44.95,18.89,1.35,28.33.35-6.54,1.96-13.08,4.66-18.96-.15-2.52.86-5.88,3.46-6.77.83-.18,1.83.25,2.04,1.07,1.31-5.66,7.47-2.52,7,2.5.96-1.19,2.81-3.33,3.82-.96,1.91,3.48,3.25,7.3,3.85,11.23,3.26-15.18,5.21-4.15,5.75,3.62.91-2.54,2.38-4.87,4.27-6.79-2.22-4.28-3.12-9.26-2.33-14.03,2.25,2.36,4.21,5.19,5.64,8.26-.15-3.01.17-6.04.99-8.93.99.86,1.58,1.9,1.76,3.07.12-1.27.45-2.64.98-3.54,1.12,1.37,1.34,3.14,1.24,4.95,1.33-9.58,2.68-19.15,4.07-28.72-3.2-8.75.8-17.99,4.92-25.76,2.23,10.18,1.96,20.22-3.05,29.36-.03-.05-.06-.09-.09-.14-.41,3.01-.81,6.02-1.22,9.03,2.21-6.85,7.58-12.69,14.36-15.18-3.38,7.79-8.44,14.6-15,19.97-.7,5.22-1.4,10.44-2.09,15.66,1.38-4.21,3.56-8.21,6.83-11.17.52,1.46.58,3.02.21,4.51,1.59-1.91,3.67-.39,3.4,1.72-.31,2.2-2.51,3.45-3.44,5.34.81.68,2.37-.68,1.54.83,1.39-.92,2.88-1.69,4.43-2.31.21-.71.44-1.41.7-2.09,2.68,4.58,4.3,9.47,4.82,14.48,3.05-13.54-2.41-27.73,3.61-40.53.48-1.06.22-2.8.73-3.85,1.57-4.02,7.68-3.38,6.04.82.04.13-.16.17-.21.27,5.61.66.6,11.91-.39,15.05-.45,7.05-2.83,13.76-6.76,19.86-.44,3.93-.89,7.85-1.34,11.78,1.91-2.17,3.94-4.78,6.99-5.2.86-1.79,4.28-3.9,5.1-1.07,2.89-6.76,12.27.95,1.65,12.08,0,.08-.03.15-.07.21.88-.52,2.54-.48,2.79.41.39,2.41-1.91,4.46-3.52,5.97.89,1.46,1.68,3,2.32,4.59,0-3.01.49-6.02,1.46-8.87.94.91,1.48,1.98,1.6,3.16.18-1.27.59-2.61,1.16-3.48,1.04,1.42,1.17,3.21.98,5.01,1.83-9.5,3.69-18.99,5.57-28.47-2.73-8.91,1.74-17.92,6.27-25.47,1.7,10.28.89,20.29-4.59,29.16-.03-.05-.06-.1-.09-.14-.57,2.98-1.13,5.97-1.69,8.95,2.56-6.72,8.24-12.27,15.14-14.4-3.78,7.6-9.2,14.13-16.03,19.16-.97,5.17-1.94,10.35-2.91,15.52,1.6-4.13,3.98-8.01,7.41-10.79.45,1.49.41,3.05-.03,4.51,1.69-1.83,3.68-.19,3.3,1.89-.42,2.18-2.69,3.32-3.72,5.15.77.72,2.4-.55,1.5.91,1.52-.89,3.14-1.63,4.82-2.17-2.52,6.88-7.05,12.62-12.59,17.33,3.39-1.67,7.04-2.74,10.79-3.16,1.22.15-.99,5.82-1.36,6.65,1.02-.48,8.37-6.62,8.48-5.37.96,4.48.33,9.13-.94,13.48,2.61-1.02,5.43-1.48,8.24-1.25-.27,2.1-.95,4.14-1.96,6.03,1.08-.36,10.73-.41,9.77,1.38-2.77,3.09-5.67,6.08-8.68,8.95.98,1.39,1.56,3.04,1.92,4.74,2.56.18,11.87,1.16,12.88,3.32-4,10.31-10.99,19.51-19.97,25.98,6.14.44,12.29,1.3,18.28,2.73.38.09.42.53.21.79Z"/>
          </g>
          <g>
            <path class="cls-12" d="M250.32,359.01c-.42-2.65-.97-5.28-1.74-7.85-.7-2.34-1.57-4.62-2.67-6.8-1.03-2.05-2.27-4-3.7-5.79-1.43-1.78-3.07-3.38-4.92-4.73-.23-.17-.47-.34-.71-.5-.29-.2-.74.06-.71.41.37,5.09,1.26,10.13,2.67,15.03.7,2.43,1.51,4.86,2.52,7.18.94,2.14,2.14,4.14,3.67,5.91,1.54,1.78,3.37,3.37,5.48,4.43.02.25.05.5.07.75.03.28.22.52.52.52.26,0,.55-.24.52-.52-.27-2.69-.58-5.38-1-8.06ZM245.87,361.8c-1.51-1.64-2.71-3.5-3.65-5.52-1.04-2.23-1.83-4.59-2.54-6.94-.72-2.4-1.32-4.83-1.78-7.29-.46-2.42-.8-4.86-1-7.32,1.51,1.13,2.89,2.44,4.11,3.87,1.44,1.69,2.67,3.56,3.71,5.53,1.09,2.05,1.96,4.21,2.66,6.42.8,2.52,1.38,5.1,1.82,7.7.41,2.37.69,4.76.93,7.15-1.53-1.06-2.99-2.24-4.26-3.61Z"/>
            <path class="cls-12" d="M284.03,391.92c-2.27.35-4.5.95-6.63,1.82-2.15.87-4.21,1.97-6.13,3.27-1.92,1.3-3.71,2.78-5.34,4.43-1.64,1.65-3.1,3.47-4.38,5.42-1.26,1.92-2.34,3.95-3.13,6.11-.25.11-.5.21-.74.33-.25.12-.31.48-.18.7.15.26.45.3.7.18.06-.03.12-.05.18-.08.02,0,.04-.01.06-.03,2.29-1,4.7-1.68,6.99-2.69,2.01-.89,3.94-1.95,5.76-3.18,1.85-1.24,3.59-2.63,5.2-4.16,1.61-1.53,3.09-3.2,4.42-4.98,1.31-1.76,2.48-3.63,3.47-5.59.13-.25.25-.5.37-.75.22-.45-.14-.87-.61-.8ZM280.37,397.81c-1.24,1.73-2.65,3.38-4.18,4.9-1.55,1.53-3.2,2.92-4.97,4.16-1.78,1.25-3.67,2.35-5.64,3.27-2.1.98-4.33,1.68-6.5,2.55.77-1.62,1.64-3.2,2.62-4.71,1.24-1.9,2.67-3.68,4.24-5.31,1.57-1.62,3.29-3.1,5.15-4.38,1.84-1.27,3.86-2.4,5.88-3.25,2.01-.84,4.1-1.49,6.24-1.89-.83,1.62-1.78,3.17-2.84,4.65Z"/>
            <path class="cls-12" d="M227.92,404.96c-.52-.05-1.03-.13-1.54-.24-.13-.19-.26-.37-.38-.56-.38-.57-.74-1.14-1.1-1.71-.72-1.15-1.41-2.32-2.09-3.5-1.37-2.37-2.7-4.76-4.14-7.07-1.32-2.12-2.75-4.18-4.38-6.08-1.54-1.79-3.25-3.44-5.15-4.84-1.88-1.38-3.97-2.5-6.21-3.19-.27-.08-.55-.16-.82-.23-.21-.05-.43.02-.56.19-.14.19-.13.38-.04.59,1.02,2.35,2.1,4.68,3.3,6.95,1.19,2.26,2.49,4.46,3.94,6.56,1.45,2.11,3.05,4.12,4.83,5.96,1.8,1.86,3.78,3.56,5.95,4.97,1.13.73,2.33,1.37,3.58,1.89.77.32,1.56.56,2.37.73.05.07.1.14.15.22.1.15.21.27.35.39.12.1.24.23.37.31.12.14.31.2.48.1.16-.09.25-.34.13-.51,0,0-.01-.02-.02-.03-.02-.08-.04-.17-.07-.25.02,0,.04,0,.07,0,.33.04.66.06,1,.07.47.02.45-.67,0-.71ZM220.69,402.33c-2.14-1.32-4.08-2.97-5.86-4.74-1.76-1.75-3.34-3.67-4.77-5.7-1.45-2.05-2.76-4.21-3.95-6.42-1.16-2.15-2.22-4.35-3.21-6.59,1.78.59,3.45,1.45,5.02,2.53,1.88,1.29,3.57,2.87,5.08,4.58,1.59,1.8,2.98,3.73,4.27,5.76,1.45,2.27,2.77,4.62,4.11,6.96,1.07,1.87,2.16,3.74,3.34,5.55-1.42-.48-2.78-1.16-4.04-1.93Z"/>
            <path class="cls-12" d="M283.31,324.47c-.23-3.62-1-7.29-2.85-10.46-1-1.71-2.31-3.22-3.92-4.38-.33-.24-.72.09-.75.43-.31,3.68-.17,7.38.4,11.03.56,3.63,1.56,7.18,2.97,10.58.8,1.92,1.71,3.79,2.83,5.54.08.12.19.17.29.17.02.28.07.55.13.83.04.22.29.35.5.32.23-.03.37-.21.39-.44.09-1.12-.01-2.26,0-3.39,0-1.13.03-2.26.05-3.4.05-2.27.11-4.55-.04-6.82ZM280.26,331.92c-.7-1.66-1.3-3.36-1.8-5.09-1.01-3.47-1.62-7.06-1.79-10.67-.08-1.71-.06-3.43.05-5.14,2.34,1.98,3.8,4.83,4.63,7.76,1.08,3.85,1.04,7.87.96,11.86-.03,1.24-.06,2.48-.07,3.73,0,.58,0,1.16.01,1.74-.7-1.37-1.38-2.76-1.98-4.18Z"/>
          </g>
          <g>
            <g>
              <path class="cls-9" d="M137.12,139.08c-1.34-5.23-2.68-10.45-4.02-15.68-.17-.68-.36-1.37-.78-1.93s-1.15-.94-1.82-.75c-.67.19-1.03,2.37-.58,2.91-.46-2.38-1.94-4.55-4-5.84-.7-.44-1.52-.78-2.32-.62-.8.17-1.12,1.62-.82,2.38-.85-.78-2.14-1.03-3.21-.63-1.08.4-1.88,1.44-2.01,2.58-.17,1.55,1.16,3.11,2.09,4.37-1.25.89-1.18,2.91-.19,4.09.98,1.18,2.56,1.67,4.07,1.93,1.51.26,3.08.35,4.49.96,3.5,1.52,6.28,3.65,9.1,6.22Z"/>
              <path class="cls-9" d="M138.55,102.26c-.9-1.85-1.04-4.06-.37-6,.28-.8.72-1.6,1.46-2.02s1.82-.3,2.26.43c-.41-1.21.49-3.13,1.66-3.63,1.17-.51,2.59-.2,3.61.57,1.02.77,1.68,1.93,2.08,3.15,1.1,3.41.23,7.1-.64,10.57.31-1,2.15-2.01,2.85-1.22.7.78.73,1.95.6,2.99-.38,3.02-1.76,5.9-3.87,8.09,1.08-.44,2.87-.15,3.17.98.31,1.13-.08,2.32-.57,3.38-1.36,2.92-3.55,5.45-6.25,7.22,1.23,3.07.83,6.8-1.23,9.39-1.52-8.6-2.24-17.33-2.16-26.06"/>
              <path class="cls-9" d="M125.75,88.54c-5.88-6.18-9.4-14.54-9.7-23.06-.04-1.16-1.05-2.61-1.06-3.77,0-1.16.28-2.36,1.03-3.25.75-.89,2-1.4,3.11-1.08,1.11.33,1.92,1.6,1.56,2.7,1.09-.24,2.32-.3,3.04.55.72.85,1.1,1.94,1.43,3.01,2.53,8.28,2.56,16.47.59,24.9Z"/>
              <path class="cls-14" d="M246.56,465.83c-6.51-25.36-14.04-50.51-21.35-75.65-7.32-25.16-14.81-50.27-22.48-75.32-7.63-24.93-15.44-49.81-23.43-74.64-8.02-24.94-16.22-49.83-24.59-74.66-8.37-24.84-17.02-49.58-26.04-74.2-1.12-3.07-2.33-6.1-3.5-9.15-.29-.77-1.53-.46-1.26.35,8.19,24.87,16.73,49.63,25.11,74.44,8.39,24.82,16.64,49.69,24.7,74.62,8.02,24.81,15.87,49.68,23.54,74.6,7.71,25.04,15.25,50.14,22.61,75.28s14.55,50.35,21.55,75.59c.87,3.14,1.75,6.28,2.68,9.41.46,1.56,2.85.91,2.44-.67Z"/>
              <g>
                <g>
                  <path class="cls-18" d="M186.11,277.65c-3.41-3.05-16.09-8.53-18.1-9.21-2.04-1-5.14-.21-6.29-2.59-2.25-5.31,1.37-12.57,7.55-12.36,3.99.15,6.63,3.62,8.69,6.65,2.43,3.53,4.57,7.25,6.41,11.11.18.7,3.85,7.53,1.73,6.4Z"/>
                  <path class="cls-9" d="M178.05,250.43c.62-2.49-1.97-4.68-4.36-4.02,2.37-4.1-1.41-8.99-5.5-5.43.96-3.85-4-7.91-6.5-3.81-2.57-4.05-9.05-5.14-9.37.93-2-.75-4.24.8-5.25,2.48-1.3,2.77-.4,6.06.8,8.72-7.32-1.39-11.41,7.85-4.75,11.7-3.66,3.81,1.22,10.34,6.01,8.99-3.71,8.41,6,14.12,9.77,5.11,3.48,3.83,8.03,1.33,7.76-3.6,1.34.5,2.81-.31,3.44-1.54,1.57-2.97-.11-6.35-1.62-8.97,2.69.38,5.8-.19,7.63-2.35,1.39-1.53,1.7-4.37-.32-5.5,1.03-.66,1.96-1.52,2.26-2.72Z"/>
                  <path class="cls-16" d="M160.36,257.65c-.16-.37-.52-.57-.85-.77-.13-.08-.27-.15-.37-.23-.17-.13-.37-.22-.57-.31-.7-.32-1.43-.6-2.18-.78-.77-.19-1.56-.32-2.35-.37-.69-.05-1.43-.1-2.11.07-.36.09-.73.26-1,.53-.38.37-.53,1.13-.04,1.46.1.1.23.17.39.17.15,0,.3-.07.41-.18.03-.02.06-.05.09-.07.07-.06.08-.09.1-.12.03-.03.05-.06.07-.08,0,0,.04-.03.06-.06.02-.02.06-.04.08-.05.03-.02.06-.03.09-.05.08-.05-.07.04-.07.03.01-.05.32-.09.36-.1,0,0,0,0,.01,0,.06,0,.12,0,.18-.01.17,0,.34,0,.51,0,.34,0,.68.03,1.01.06.15.01.3.03.45.04.09,0,.17.02.26.03.03,0,.05,0,.08.01.01,0,.03,0,.04,0,.33.05.67.11,1,.18.66.14,1.32.31,1.96.5.18.05.35.13.53.18.1.02.21.03.26.04.09.03.19.07.28.1.38.14.71.29,1.13.23.22-.03.25-.29.18-.45Z"/>
                  <path class="cls-16" d="M162.79,254.96c-.08-.18-.15-.36-.23-.53-.15-.33-.33-.65-.51-.96-.37-.63-.76-1.23-1.11-1.87-.17-.32-.33-.64-.49-.96-.07-.15-.14-.3-.21-.45-.01-.03-.12-.29-.06-.13-.04-.09-.07-.17-.11-.26-.26-.66-.47-1.33-.61-2.02-.02-.09-.03-.18-.05-.28,0-.05-.01-.09-.02-.14,0,0,0-.01,0-.02,0,0,0,0,0,0-.02-.19-.04-.38-.05-.57.2-.05.38-.2.44-.41.07-.25.02-.53-.14-.73-.22-.29-.64-.4-.99-.34-.61.12-.91.69-.94,1.26-.03.46.05.94.13,1.39.06.39.15.79.26,1.17.47,1.65,1.35,3.16,2.32,4.57.3.43.62.83.97,1.21.16.17.33.35.51.5.2.16.35.37.6.45.22.07.45-.12.45-.34,0-.2-.09-.34-.17-.52Z"/>
                  <path class="cls-16" d="M160.36,256.13c-.09-.17-.19-.31-.31-.47-.11-.15-.2-.31-.32-.45-.24-.29-.49-.58-.72-.87-.46-.57-.97-1.12-1.45-1.67-.97-1.11-1.95-2.21-2.98-3.28-.28-.29-.56-.58-.84-.87-.14-.15-.29-.3-.43-.45-.18-.18-.35-.41-.58-.52h0c-.15-.09-.32-.12-.5-.09-.24.03-.45.16-.57.37-.15.26-.12.53,0,.79.09.2.27.36.42.51.12.13.25.26.37.39.26.27.52.55.78.82.51.54,1.02,1.07,1.54,1.59,1.04,1.04,2.12,2.05,3.19,3.07.29.28.59.55.89.82.16.14.33.26.49.39.18.14.34.29.55.41.32.18.65-.18.49-.49Z"/>
                  <path class="cls-5" d="M169.03,261.03c-.16-.24-.4-.42-.62-.61-.21-.19-.41-.37-.62-.55-.42-.37-.84-.73-1.26-1.09-.74-.62-1.5-1.2-2.28-1.77,0-.04,0-.09-.02-.13-.69-2.06-.9-4.27-.59-6.43.31-2.17,1.11-4.28,2.32-6.11.68-1.03,1.5-1.96,2.44-2.76.18-.16.16-.47,0-.63-.18-.18-.45-.16-.63,0-1.76,1.52-3.1,3.46-3.99,5.6-.88,2.12-1.3,4.47-1.2,6.76.05,1.1.22,2.18.52,3.24-2.52.16-4.98,1.01-7.11,2.37-1.16.74-2.24,1.63-3.17,2.65-.92,1-1.75,2.12-2.33,3.35-.33.69-.61,1.4-.83,2.13-.23.74-.34,1.5-.43,2.27-.03.22.33.26.38.05.14-.64.36-1.25.59-1.87.22-.6.48-1.19.79-1.75.62-1.12,1.35-2.2,2.2-3.15,1.71-1.93,3.9-3.46,6.32-4.32,1.39-.49,2.78-.75,4.23-.78.74.64,1.48,1.28,2.21,1.93.41.36.81.72,1.21,1.09.19.18.39.36.58.54.22.2.42.45.68.61.38.23.89-.24.63-.63Z"/>
                </g>
                <path class="cls-2" d="M190.09,283.47c-6.92-2.19-12.97-7.02-16.64-13.27,7.81-.8,14.44,5.74,16.64,13.27Z"/>
                <path class="cls-12" d="M189.68,282.54c-6.24-6.09-9.52-15.08-8.65-23.75,5.08,7.13,7.88,15.04,8.65,23.75Z"/>
              </g>
              <g>
                <g>
                  <path class="cls-18" d="M178.3,231.21c.95-3.91,7.64-14.24,8.8-15.73,1.01-1.75,3.79-2.75,3.38-5.03-3.99-10.54-16.92-7.25-15.37,4.11-.16,1.52,1.28,18.65,3.19,16.66Z"/>
                  <path class="cls-9" d="M173.03,208.45c-.93,1.83.83,3.71,2.7,4.1,2.54.62,5.2-.53,7.04-2.17.26,2.64.79,5.91,3.57,7.24,1.13.56,2.68.4,3.43-.64,2.43,3.67,7.21,3.16,7.81-1.34,7.68,4.55,11.98-4.45,4.68-8.6,4.35-1.45,4.55-8.59-.25-9.48,2.99-6.12-5.05-10.67-9.86-5.98-.51-2.51-1.58-5.32-4.05-6.65-1.66-.7-4.19-.68-5.3.87-3.48-4.19-7.81-.14-7.6,4.06-4.09-1.67-5.68,3.74-2.89,6.01-5-.49-5.25,4.93-1.26,6.66-2.16.73-2.95,3.61-1.15,5.08.87.71,2.03.86,3.17.81Z"/>
                  <path class="cls-16" d="M187.13,203.87c.17-2.18,3.71-6.17,6.15-6.1,1.05.08,1.19,1.74-.04,1.38-.11-.03-.24-.04-.36-.02-1.26.5-2.96,2.2-4,3.47-.36.3-1.34,2.15-1.75,1.27Z"/>
                  <path class="cls-16" d="M184.52,203.66c.39-.8.41-1.73.43-2.6-.01-1.84-.23-3.74-1.11-5.41-1.44-3.47-3.95-.09-1.77-.08.56.85.89,1.82,1.13,2.79.36,1.33.28,3.31.65,4.83,0,.33.32.82.67.48Z"/>
                  <path class="cls-16" d="M186.32,202.79c.06-3.34.55-6.73,1.21-10.01h0c.29-.62,1.33-.46,1.39.23-.08,1.32-.38,2.63-.58,3.94-.25.56-1.04,7.54-2.01,5.84Z"/>
                  <path class="cls-5" d="M182.37,210.68c.31-1.8.87-3.57,1.48-5.3-1.48-4.77-6.13-8.49-11.4-8.96-.53-.08-.39-.86.14-.77,5.29.5,10.1,4.09,11.88,8.82,5.35-3.11,13.15-2.46,17.34,2.13.19.84-1.41-.75-1.7-.81-4.55-2.9-11.01-3.29-15.61-.32-.49,1.77-.88,3.57-1.32,5.34-.16.35-.81.28-.81-.13Z"/>
                </g>
                <path class="cls-2" d="M178.4,237.38c4.07-5.06,6.08-11.57,5.52-17.91-6.35,3.37-7.88,11.4-5.52,17.91Z"/>
                <path class="cls-12" d="M178.2,236.51c1.48-7.51-.85-15.61-6.14-21.38-.04,7.67,2.07,14.75,6.14,21.38Z"/>
              </g>
              <g>
                <g>
                  <path class="cls-18" d="M201.42,302.22c1.55-4.2,10.15-14.75,11.6-16.25,1.33-1.8,4.45-2.54,4.32-5.12-2.88-12.18-17.27-10.24-17.12,2.53-.38,1.66-1.14,20.8,1.19,18.85Z"/>
                  <path class="cls-9" d="M198.8,276.35c-1.25,1.9.4,4.21,2.36,4.89,2.66,1.02,5.68.09,7.88-1.48-.08,2.95.06,6.64,2.87,8.48,1.14.77,2.84.8,3.78-.25,2.12,4.37,7.35,4.44,8.59-.46,7.66,6.04,13.52-3.35,6.2-8.9,4.88-1.04,6.07-8.91,1-10.52,4.05-6.37-4.01-12.47-9.82-7.91-.21-2.84-.99-6.09-3.47-7.89-1.7-.99-4.42-1.3-5.83.27-3.19-5.09-8.4-1.18-8.74,3.5-4.18-2.39-6.63,3.39-3.93,6.27-5.33-1.2-6.32,4.76-2.26,7.21-2.43.52-3.67,3.61-1.93,5.47.84.9,2.07,1.22,3.3,1.31Z"/>
                  <path class="cls-16" d="M214.62,273.14c.48-2.39,4.83-6.33,7.45-5.94,1.12.23,1.05,2.08-.23,1.52-.12-.05-.26-.08-.38-.07-1.42.39-3.49,2.05-4.78,3.31-.43.28-1.73,2.2-2.06,1.18Z"/>
                  <path class="cls-16" d="M211.84,272.56c.53-.83.67-1.86.81-2.82.23-2.04.26-4.17-.47-6.14-1.08-4.03-4.24-.62-1.89-.32.49,1.01.71,2.13.84,3.23.21,1.52-.14,3.7.05,5.42-.05.37.23.95.66.62Z"/>
                  <path class="cls-16" d="M213.89,271.83c.51-3.69,1.5-7.37,2.65-10.91h0c.4-.65,1.49-.34,1.46.43-.27,1.44-.77,2.86-1.16,4.28-.34.58-2.13,8.21-2.96,6.2Z"/>
                  <path class="cls-5" d="M208.57,280.04c.58-1.95,1.42-3.83,2.3-5.67-.96-5.47-5.47-10.2-11.08-11.4-.56-.15-.31-1,.26-.84,5.63,1.25,10.34,5.85,11.62,11.31,6.19-2.74,14.51-.99,18.41,4.64.09.95-1.42-1.01-1.73-1.12-4.51-3.8-11.42-5.08-16.78-2.4-.77,1.89-1.43,3.83-2.14,5.73-.22.37-.91.2-.86-.25Z"/>
                </g>
                <path class="cls-2" d="M200.69,309.06c5.07-5.07,8.11-12.01,8.36-19.09-7.3,2.89-10.03,11.58-8.36,19.09Z"/>
                <path class="cls-12" d="M200.6,308.08c2.6-8.11,1.19-17.38-3.74-24.46-1.07,8.48.24,16.59,3.74,24.46Z"/>
              </g>
              <g>
                <g>
                  <path class="cls-18" d="M161.12,180.59c.7-3.13,5.59-11.39,6.44-12.58.74-1.4,2.77-2.2,2.47-4.02-2.92-8.43-12.39-5.8-11.25,3.29-.12,1.22.93,14.92,2.33,13.32Z"/>
                  <path class="cls-9" d="M157.26,162.39c-.68,1.46.61,2.97,1.98,3.28,1.86.5,3.81-.43,5.15-1.73.19,2.11.58,4.72,2.61,5.79.82.45,1.96.32,2.51-.51,1.78,2.93,5.28,2.53,5.71-1.07,5.62,3.64,8.77-3.56,3.42-6.88,3.18-1.16,3.33-6.87-.19-7.58,2.19-4.89-3.7-8.54-7.22-4.78-.37-2.01-1.16-4.26-2.97-5.32-1.22-.56-3.06-.54-3.88.7-2.55-3.35-5.72-.11-5.56,3.25-2.99-1.34-4.16,2.99-2.12,4.81-3.66-.39-3.84,3.94-.93,5.33-1.58.58-2.16,2.89-.84,4.07.63.57,1.49.69,2.32.65Z"/>
                  <path class="cls-16" d="M167.58,158.73c.13-1.75,2.71-4.93,4.5-4.88.77.07.87,1.39-.03,1.1-.08-.03-.18-.03-.26-.02-.92.4-2.17,1.76-2.93,2.77-.27.24-.98,1.72-1.28,1.02Z"/>
                  <path class="cls-16" d="M165.68,158.56c.28-.64.3-1.38.31-2.08-.01-1.47-.17-2.99-.81-4.33-1.05-2.77-2.89-.07-1.29-.06.41.68.65,1.45.82,2.23.26,1.06.21,2.65.48,3.86,0,.27.23.65.49.38Z"/>
                  <path class="cls-16" d="M166.99,157.86c.04-2.67.4-5.38.88-8h0c.22-.5.97-.37,1.01.18-.06,1.05-.28,2.11-.43,3.15-.18.45-.76,6.03-1.47,4.67Z"/>
                  <path class="cls-5" d="M164.1,164.17c.23-1.44.64-2.85,1.08-4.24-1.09-3.81-4.49-6.79-8.34-7.16-.39-.06-.29-.69.1-.62,3.87.4,7.4,3.27,8.7,7.05,3.92-2.49,9.63-1.97,12.7,1.71.14.67-1.03-.6-1.25-.65-3.33-2.32-8.06-2.63-11.43-.25-.36,1.41-.65,2.85-.96,4.27-.12.28-.59.22-.59-.11Z"/>
                </g>
                <path class="cls-2" d="M161.19,185.53c2.98-4.05,4.45-9.26,4.04-14.33-4.65,2.69-5.77,9.12-4.04,14.33Z"/>
                <path class="cls-12" d="M161.05,184.83c1.08-6.01-.62-12.48-4.49-17.1-.03,6.13,1.51,11.8,4.49,17.1Z"/>
              </g>
              <g>
                <g>
                  <path class="cls-18" d="M167.4,218.65c-3.06-2.52-14.22-6.83-15.98-7.34-1.8-.79-4.46,0-5.53-2.02-2.13-4.52.75-10.93,6.1-10.96,3.46-.01,5.87,2.9,7.75,5.45,2.22,2.97,4.21,6.11,5.94,9.4.18.6,3.6,6.39,1.72,5.48Z"/>
                  <path class="cls-9" d="M159.48,195.37c.45-2.17-1.87-3.99-3.91-3.33,1.91-3.63-1.53-7.73-4.94-4.51.7-3.37-3.74-6.7-5.76-3.07-2.37-3.42-8.01-4.13-8.07,1.13-1.76-.58-3.64.84-4.45,2.33-1.03,2.44-.14,5.26,1,7.52-6.38-.95-9.6,7.19-3.7,10.29-3.03,3.42,1.42,8.91,5.51,7.58-2.92,7.41,5.68,12.01,8.63,4.08,3.15,3.19,7,.87,6.59-3.38,1.18.39,2.43-.37,2.92-1.45,1.25-2.62-.32-5.49-1.72-7.71,2.35.24,5.01-.36,6.52-2.3,1.15-1.37,1.32-3.84-.47-4.75.87-.61,1.65-1.38,1.86-2.44Z"/>
                  <path class="cls-16" d="M144.43,202.24c-.15-.31-.47-.48-.77-.63-.12-.06-.24-.12-.33-.18-.15-.11-.33-.18-.5-.25-.62-.26-1.26-.47-1.91-.6-.67-.13-1.36-.22-2.05-.24-.6-.02-1.24-.04-1.82.13-.31.09-.62.25-.84.49-.31.33-.42,1,.01,1.27.09.09.21.14.34.13.13,0,.26-.07.35-.17.03-.02.05-.04.08-.07.06-.06.07-.08.08-.11.02-.02.04-.05.06-.08,0,0,.03-.03.05-.05.02-.01.05-.04.07-.05.02-.02.05-.03.08-.04.06-.04-.06.03-.06.03,0-.04.27-.09.31-.1,0,0,0,0,0,0,.05,0,.1-.01.15-.02.15-.01.3-.01.44-.02.29,0,.59,0,.88.01.13,0,.26.01.39.02.08,0,.15.01.23.02.02,0,.05,0,.07,0,0,0,.02,0,.04,0,.29.03.58.07.87.12.58.1,1.15.22,1.71.37.15.04.31.1.47.13.08.02.18.02.22.03.08.02.16.05.25.08.33.11.63.23.98.16.19-.04.21-.26.14-.39Z"/>
                  <path class="cls-16" d="M146.44,199.83c-.07-.15-.14-.3-.22-.45-.14-.28-.31-.55-.47-.81-.34-.53-.7-1.04-1.02-1.58-.16-.27-.31-.54-.46-.81-.07-.13-.13-.26-.2-.39-.01-.03-.12-.25-.05-.11-.03-.07-.07-.15-.1-.22-.24-.56-.45-1.14-.6-1.73-.02-.08-.04-.16-.05-.24,0-.04-.02-.08-.02-.12,0,0,0-.01,0-.02,0,0,0,0,0,0-.02-.16-.05-.32-.06-.49.17-.05.33-.19.37-.37.05-.22,0-.46-.15-.63-.2-.24-.57-.33-.87-.26-.53.12-.76.63-.77,1.13-.01.4.08.81.16,1.2.07.34.16.67.26,1,.46,1.42,1.28,2.69,2.17,3.87.27.36.57.7.88,1.02.15.15.3.29.46.41.18.13.32.3.54.37.19.05.38-.12.38-.31,0-.18-.09-.29-.16-.45Z"/>
                  <path class="cls-16" d="M144.37,200.92c-.08-.14-.18-.27-.29-.39-.1-.12-.18-.26-.29-.38-.21-.25-.44-.48-.66-.73-.42-.48-.88-.93-1.32-1.4-.88-.93-1.77-1.85-2.69-2.73-.25-.24-.51-.48-.76-.72-.13-.12-.26-.25-.39-.37-.16-.15-.32-.34-.52-.43h0c-.13-.07-.28-.09-.44-.06-.21.04-.38.16-.48.34-.12.23-.08.46.03.69.08.17.25.3.38.43.11.11.22.22.34.33.23.23.47.45.7.68.46.45.92.89,1.39,1.32.94.86,1.91,1.7,2.87,2.54.26.23.53.46.8.68.14.12.29.21.44.32.16.12.31.24.49.33.28.15.56-.18.41-.44Z"/>
                  <path class="cls-5" d="M152.04,204.87c-.15-.2-.36-.35-.55-.51-.18-.15-.37-.31-.56-.46-.37-.3-.75-.6-1.13-.9-.66-.51-1.34-.99-2.04-1.45,0-.04,0-.08-.02-.11-.67-1.76-.92-3.66-.73-5.54.19-1.89.81-3.74,1.8-5.37.55-.91,1.23-1.74,2.01-2.48.15-.14.12-.41-.02-.55-.16-.15-.4-.12-.55.02-1.47,1.37-2.56,3.1-3.25,4.98-.69,1.87-.97,3.91-.8,5.9.08.95.27,1.88.56,2.79-2.18.23-4.28,1.04-6.07,2.29-.98.68-1.88,1.49-2.65,2.4-.76.9-1.44,1.9-1.9,2.98-.26.61-.48,1.23-.65,1.87-.17.65-.24,1.31-.3,1.98-.02.19.3.22.33.03.1-.56.27-1.1.44-1.64.17-.53.38-1.04.63-1.54.5-.99,1.09-1.95,1.79-2.8,1.42-1.73,3.26-3.13,5.32-3.95,1.18-.47,2.38-.75,3.63-.82.66.52,1.32,1.06,1.98,1.59.36.3.72.59,1.08.9.17.15.35.3.52.45.19.17.38.38.61.5.33.19.77-.24.52-.56Z"/>
                </g>
                <path class="cls-2" d="M171.05,223.55c-6.06-1.66-11.47-5.62-14.86-10.91,6.73-.97,12.69,4.47,14.86,10.91Z"/>
                <path class="cls-12" d="M170.67,222.76c-5.61-5.05-8.76-12.72-8.31-20.26,4.64,5.99,7.34,12.74,8.31,20.26Z"/>
              </g>
              <path class="cls-12" d="M158.73,184.6c-10.63-5.38-18.91-15.25-22.36-26.65,5.47,2.04,9.99,5.87,13.27,10.7s6.86,10.55,9.08,15.95Z"/>
              <path class="cls-12" d="M147.13,148.81c-8.5-1.79-15.96-7.93-19.35-15.93,7.62,2.23,15.87,8.79,19.35,15.93Z"/>
              <path class="cls-12" d="M136.07,118.23c-8.84-5.54-14.91-15.29-15.97-25.67,9.02,5.91,14.71,14.96,15.97,25.67Z"/>
              <path class="cls-12" d="M148.28,148.39c-4.33-10.29-2.06-23.02,5.55-31.18.63,10.77-.96,21.42-5.55,31.18Z"/>
              <path class="cls-12" d="M142.9,130.87c-4.5-9.2-6.03-20.2-4.42-30.32,3.77,9.72,5.53,19.95,4.42,30.32Z"/>
              <path class="cls-12" d="M129.32,97.99c-5.86-9.28-8.16-20.75-6.32-31.57,6.55,9.33,8.38,20.36,6.32,31.57Z"/>
              <path class="cls-12" d="M186.42,262.83c-4.81-14.57.39-31.88,12.42-41.39-5.92,14.1-9.82,26.32-12.42,41.39Z"/>
              <path class="cls-12" d="M175.61,238.99c-2.21-5.56-6.47-10.29-11.77-13.06-5.3-2.77-11.61-3.57-17.44-2.2,10.45,3.86,20.09,8.85,29.21,15.26Z"/>
              <path class="cls-12" d="M234.91,434.05c-11.27-23.44-29.54-43.45-51.87-56.78,13.02,22.17,30.64,42.29,51.87,56.78Z"/>
            </g>
            <path class="cls-5" d="M148.19,104.54c-2.01,1.12-3.34,3.23-3.74,5.47-.06.34-.1.68-.13,1.02-.03.38-.05.82.27,1.1.19.17.48.19.67,0,.32-.32.26-.76.29-1.17,0-.09.01-.17.02-.26,0-.02.02-.16.02-.18.02-.16.05-.33.08-.49.13-.64.34-1.27.6-1.79.58-1.2,1.38-2.23,2.4-3.1.35-.29-.1-.82-.47-.61Z"/>
            <path class="cls-5" d="M143.92,99.97c-.08-.65-.2-1.3-.37-1.94-.17-.63-.44-1.23-.75-1.8-.17-.32-.35-.63-.55-.93-.2-.31-.46-.57-.7-.84-.21-.24-.55.06-.42.32.14.27.24.56.36.84.12.25.23.5.33.76.22.56.38,1.14.53,1.73.31,1.17.44,2.22.46,3.43,0,.34,0,.67.04,1.01.02.17.06.34.07.52.01.17,0,.34,0,.52.01.22.34.35.45.12.13-.27.21-.55.33-.83.14-.33.21-.67.24-1.03.07-.63.03-1.26-.04-1.88Z"/>
            <path class="cls-5" d="M133.98,134.34c-.1-.19-.23-.35-.31-.55-.09-.21-.22-.39-.35-.57-.27-.35-.54-.7-.78-1.08-.48-.72-.91-1.48-1.26-2.27-.69-1.58-1.09-3.28-1.22-4.99-.04-.5-.06-.99-.05-1.49,0-.24,0-.47,0-.71,0-.26-.02-.51,0-.77,0-.08-.11-.08-.13-.02-.07.2-.18.4-.23.61-.06.23-.12.45-.16.69-.07.45-.12.91-.15,1.37-.05.91.02,1.81.17,2.71-.67-.72-1.42-1.37-2.25-1.91-.81-.53-1.71-.93-2.65-1.12-.91-.18-1.93-.25-2.84,0-.48.13-.94.33-1.37.58-.45.27-.76.63-1.06,1.06-.09.13.09.31.22.22.34-.23.72-.39,1.09-.56.36-.17.75-.27,1.13-.34.73-.13,1.61-.16,2.36-.02,1.79.34,3.29,1.42,4.55,2.74.37.39.72.79,1.09,1.18.07.08.15.16.22.24.36,1.1.86,2.15,1.48,3.11.28.43.58.87.92,1.26.18.2.37.43.6.56.11.06.22.11.33.18.11.07.2.15.32.21.21.11.43-.11.32-.32Z"/>
            <path class="cls-5" d="M122.56,66.36c-.12-.31-.27-.59-.44-.87-.32-.51-.71-.99-1.15-1.4-.92-.83-2.14-1.52-3.42-1.3-.61.1-1.19.46-1.57.94-.15.19.1.46.27.27.93-1.03,2.56-.38,3.45.35.5.41.96.89,1.33,1.42.19.28.35.57.51.87.16.28.36.62.65.78.17.1.34,0,.41-.17.11-.25.06-.65-.04-.9Z"/>
            <path class="cls-5" d="M120.66,59.7s0-.02,0-.03c0-.03,0-.06,0-.1,0-.02,0-.04-.02-.05-.01-.01-.03-.02-.05-.02-.02,0-.04,0-.05.02-.01.01-.02.03-.02.05,0,.03,0,.06,0,.1,0,.02,0,.03,0,.05,0,0,0,.02,0,.02,0,0,0,.02,0,.02-.15.12-.32.2-.47.33-.16.14-.3.29-.43.46-.25.35-.43.76-.54,1.17-.11.4-.19.84-.18,1.25,0,.22.06.43.12.64.05.18.16.42.34.52.07.04.19.04.25-.03.12-.15.14-.34.16-.52.02-.18.04-.36.05-.54.02-.37.05-.72.14-1.08.09-.36.21-.71.36-1.05.07-.16.13-.32.19-.48.07-.17.11-.36.23-.5.08-.1,0-.23-.1-.22Z"/>
          </g>
          <g>
            <g>
              <path class="cls-9" d="M297.67,98.44c1.19-5.26,2.39-10.52,3.58-15.79.15-.68.31-1.38.19-2.07-.12-.69-.59-1.36-1.28-1.5-.68-.14-1.99,1.64-1.84,2.32.68-2.33.35-4.93-.89-7.02-.42-.71-.99-1.39-1.79-1.61s-1.73.93-1.81,1.75c-.4-1.08-1.43-1.89-2.57-2.02-1.14-.13-2.34.42-2.97,1.38-.86,1.3-.39,3.3-.13,4.84-1.52.22-2.38,2.06-2.04,3.55.34,1.5,1.52,2.65,2.74,3.57,1.23.92,2.58,1.72,3.56,2.9,2.42,2.95,3.92,6.11,5.26,9.69Z"/>
              <path class="cls-9" d="M315.75,66.33c.04-2.06.93-4.08,2.41-5.51.61-.59,1.37-1.1,2.22-1.13s1.76.57,1.82,1.41c.19-1.26,1.86-2.56,3.14-2.47,1.27.08,2.4,1,2.96,2.15.56,1.15.62,2.49.41,3.75-.58,3.53-3.04,6.42-5.39,9.11.73-.75,2.83-.8,3.09.21.26,1.02-.25,2.07-.84,2.94-1.71,2.52-4.26,4.45-7.14,5.43,1.16.1,2.62,1.17,2.38,2.32s-1.13,2.03-2.05,2.75c-2.54,1.98-5.64,3.23-8.85,3.57-.31,3.3-2.37,6.43-5.38,7.8,2.57-8.34,5.91-16.44,9.97-24.17"/>
              <path class="cls-9" d="M310.62,48.28c-2.41-8.18-1.72-17.23,1.9-24.95.49-1.05.26-2.8.78-3.84.52-1.04,1.33-1.97,2.4-2.42,1.07-.45,2.42-.34,3.26.46s.98,2.3.15,3.12c1.08.28,2.2.79,2.45,1.88.25,1.09.1,2.23-.1,3.33-1.53,8.52-5.24,15.83-10.84,22.42Z"/>
              <path class="cls-14" d="M245.91,439.12c5.79-25.54,10.56-51.35,15.53-77.05,4.97-25.73,9.77-51.49,14.38-77.28,4.59-25.67,9-51.37,13.22-77.1,4.25-25.86,8.32-51.74,12.2-77.65,3.89-25.93,7.49-51.88,10.7-77.9.4-3.24.71-6.49,1.07-9.74.09-.82-1.15-1.11-1.28-.27-4.07,25.87-7.77,51.8-11.63,77.7-3.87,25.92-7.88,51.81-12.08,77.67-4.19,25.74-8.56,51.45-13.1,77.12-4.57,25.8-9.32,51.57-14.24,77.3-4.93,25.73-10.04,51.43-15.33,77.1-.66,3.19-1.31,6.39-1.91,9.59-.3,1.6,2.12,2.11,2.48.52Z"/>
              <g>
                <g>
                  <path class="cls-18" d="M278.01,244.09c-1.64-4.27-10.42-14.94-11.9-16.45-1.36-1.82-4.48-2.53-4.41-5.18.42-5.75,6.96-10.56,12.36-7.55,3.48,1.95,4.25,6.24,4.7,9.88.55,4.25.76,8.54.63,12.82-.16.71-.01,8.46-1.38,6.48Z"/>
                  <path class="cls-9" d="M283.27,216.2c1.68-1.93.38-5.07-2.04-5.57,3.98-2.56,2.85-8.64-2.41-7.34,2.61-2.99.05-8.86-4.05-6.36-.44-4.78-5.71-8.7-8.76-3.45-1.44-1.58-4.14-1.23-5.8-.19-2.43,1.87-3.13,5.21-3.27,8.12-5.87-4.58-13.73,1.78-9.57,8.24-4.99,1.72-3.63,9.76,1.24,10.75-7.14,5.79-1.11,15.3,6.36,9.01,1.35,4.99,6.54,4.85,8.55.34.96,1.06,2.65,1.01,3.76.2,2.75-1.93,2.8-5.7,2.65-8.72,2.22,1.57,5.24,2.48,7.86,1.39,1.93-.72,3.51-3.11,2.23-5.04,1.22-.12,2.44-.46,3.25-1.39Z"/>
                  <path class="cls-16" d="M264.24,214.54c.03-.4-.21-.75-.41-1.07-.08-.13-.17-.26-.22-.37-.09-.2-.23-.36-.36-.53-.48-.61-1-1.19-1.58-1.69-.6-.52-1.25-1-1.92-1.41-.59-.36-1.23-.75-1.91-.9-.36-.08-.77-.1-1.13.01-.5.15-.99.76-.71,1.28.04.14.13.26.27.33.13.07.3.08.44.03.04,0,.08-.01.12-.02.09-.02.11-.04.14-.07.04-.01.07-.03.1-.04.01,0,.05-.01.08-.02.03,0,.08,0,.09-.01.03,0,.07,0,.1,0,.09,0-.08,0-.07,0,.03-.04.33.07.37.08,0,0,0,0,.01,0,.05.02.11.05.16.07.15.07.31.15.46.24.3.16.59.33.87.51.13.08.25.16.38.24.07.05.15.1.22.15.02.02.05.03.07.05,0,0,.02.02.04.03.27.2.54.4.81.62.52.43,1.03.87,1.51,1.34.13.13.25.28.39.4.08.06.18.12.21.15.07.07.14.14.2.22.27.3.5.58.9.72.21.07.35-.14.37-.32Z"/>
                  <path class="cls-16" d="M267.63,213.27c.01-.19.03-.38.04-.58.01-.36,0-.72-.02-1.08-.04-.72-.11-1.44-.13-2.17,0-.36,0-.72,0-1.08,0-.17.01-.33.02-.5,0-.03.02-.32,0-.14,0-.09.02-.19.03-.28.07-.7.19-1.4.38-2.08.03-.09.05-.18.08-.27.01-.04.03-.09.04-.13,0,0,0-.01,0-.02,0,0,0,0,0,0,.07-.18.13-.35.21-.53.2.05.43,0,.58-.16.17-.19.26-.46.21-.72-.07-.36-.39-.65-.72-.75-.6-.18-1.12.2-1.42.69-.24.39-.38.86-.52,1.29-.13.38-.23.77-.3,1.16-.34,1.69-.24,3.43-.02,5.13.07.51.17,1.02.31,1.52.06.23.13.46.23.68.1.24.14.49.33.67.16.16.45.1.55-.1.09-.18.08-.35.09-.54Z"/>
                  <path class="cls-16" d="M264.92,213.19c0-.19-.03-.37-.06-.56-.04-.18-.04-.36-.07-.55-.08-.37-.17-.73-.25-1.1-.15-.72-.35-1.44-.53-2.15-.36-1.43-.73-2.86-1.16-4.27-.12-.39-.23-.77-.35-1.16-.06-.2-.12-.4-.18-.6-.07-.25-.13-.52-.28-.73h0c-.09-.14-.23-.25-.4-.31-.23-.08-.47-.06-.68.07-.26.16-.35.42-.36.7-.01.22.08.44.14.65.05.17.1.35.15.52.11.36.21.72.32,1.08.21.71.42,1.41.64,2.12.45,1.4.95,2.79,1.44,4.18.13.38.27.76.42,1.14.08.2.17.38.26.57.1.21.17.42.3.61.2.31.66.14.66-.21Z"/>
                  <path class="cls-5" d="M270.4,221.51c-.04-.29-.17-.56-.27-.83-.1-.26-.2-.52-.3-.78-.2-.52-.41-1.03-.63-1.54-.37-.89-.79-1.76-1.22-2.62.02-.04.04-.08.04-.13.33-2.15,1.15-4.2,2.41-5.99,1.27-1.79,2.94-3.3,4.86-4.38,1.08-.6,2.23-1.05,3.43-1.35.24-.06.36-.35.29-.56-.08-.24-.33-.35-.56-.29-2.26.55-4.33,1.66-6.1,3.16-1.75,1.49-3.2,3.38-4.16,5.47-.46,1-.8,2.04-1.02,3.12-2.32-1.01-4.89-1.38-7.41-1.14-1.37.13-2.73.43-4.03.91-1.28.47-2.52,1.09-3.6,1.92-.6.46-1.18.97-1.71,1.51-.54.56-.99,1.18-1.42,1.82-.12.18.18.39.31.22.42-.51.89-.95,1.37-1.39.47-.43.97-.83,1.5-1.19,1.06-.71,2.21-1.34,3.4-1.8,2.41-.93,5.05-1.3,7.59-.95,1.46.2,2.82.6,4.12,1.24.37.9.73,1.81,1.09,2.72.2.5.39,1.01.58,1.52.09.25.18.5.27.75.1.28.17.6.33.85.23.38.91.19.84-.27Z"/>
                </g>
                <path class="cls-2" d="M278.9,251.09c-5.16-5.11-8.33-12.16-8.75-19.41,7.31,2.85,10.23,11.7,8.75,19.41Z"/>
                <path class="cls-12" d="M278.97,250.07c-2.77-8.26-1.58-17.76,3.14-25.08,1.26,8.66.15,16.97-3.14,25.08Z"/>
              </g>
              <g>
                <g>
                  <path class="cls-18" d="M292.27,199.21c2.63-3.04,13.29-9.18,15.01-9.98,1.7-1.09,4.63-.72,5.3-2.93,1.26-11.19-11.75-14.18-15.55-3.36-.84,1.28-7.38,17.18-4.77,16.28Z"/>
                  <path class="cls-9" d="M297.96,176.55c-1.66,1.21-.95,3.68.53,4.88,1.98,1.72,4.87,1.9,7.25,1.28-.98,2.46-1.99,5.62-.13,8.07.74,1.01,2.2,1.58,3.34,1,.48,4.37,4.97,6.1,7.56,2.37,4.76,7.55,12.69,1.51,8.08-5.51,4.53.69,7.98-5.57,4.1-8.55,5.45-4.08.38-11.8-6.04-9.82.7-2.46,1.02-5.46-.57-7.77-1.16-1.38-3.41-2.51-5.12-1.65-1.19-5.31-6.89-3.69-8.61.15-2.88-3.35-6.76.73-5.32,4.03-4.23-2.72-6.92,1.99-4.17,5.35-2.26-.34-4.28,1.87-3.35,4,.44,1.03,1.41,1.69,2.45,2.17Z"/>
                  <path class="cls-16" d="M312.6,178.92c1.15-1.86,6.11-3.79,8.26-2.62.9.55.26,2.09-.66,1.21-.08-.08-.2-.15-.31-.18-1.35-.12-3.64.61-5.14,1.26-.46.1-2.17,1.3-2.14.33Z"/>
                  <path class="cls-16" d="M310.38,177.54c.71-.53,1.15-1.35,1.57-2.12.83-1.65,1.5-3.44,1.48-5.32.3-3.74-3.47-1.88-1.54-.87.11,1.01-.04,2.02-.27,2.99-.29,1.35-1.26,3.07-1.63,4.59-.16.29-.09.87.38.73Z"/>
                  <path class="cls-16" d="M312.37,177.58c1.58-2.95,3.56-5.74,5.64-8.35h0c.55-.42,1.39.19,1.13.83-.68,1.13-1.54,2.17-2.32,3.24-.47.38-4.36,6.24-4.46,4.28Z"/>
                  <path class="cls-5" d="M305.26,182.8c1.09-1.46,2.4-2.78,3.73-4.04.86-4.92-1.58-10.36-6.05-13.17-.43-.31.04-.95.48-.62,4.47,2.86,7.12,8.25,6.54,13.27,6.18-.33,12.82,3.82,14.46,9.81-.21.83-.91-1.31-1.15-1.5-2.72-4.65-8.3-7.95-13.74-7.41-1.25,1.35-2.41,2.77-3.61,4.15-.31.24-.85-.12-.66-.49Z"/>
                </g>
                <path class="cls-2" d="M289.53,204.75c5.94-2.65,10.69-7.52,13.09-13.42-7.19.1-12.21,6.55-13.09,13.42Z"/>
                <path class="cls-12" d="M289.76,203.89c4.74-6.01,6.37-14.27,4.3-21.83-3.53,6.81-4.89,14.06-4.3,21.83Z"/>
              </g>
              <g>
                <g>
                  <path class="cls-18" d="M280.42,272.95c3.3-3.03,15.76-8.49,17.74-9.16,2-1,5.12-.23,6.18-2.59,3-12.15-10.69-16.99-16.38-5.56-1.1,1.31-10.5,17.99-7.54,17.31Z"/>
                  <path class="cls-9" d="M289.9,248.73c-1.98,1.12-1.57,3.93-.13,5.43,1.9,2.12,5.01,2.67,7.68,2.28-1.42,2.59-2.98,5.93-1.32,8.86.66,1.2,2.16,2,3.48,1.5-.11,4.86,4.51,7.3,7.86,3.51,4.06,8.87,13.56,3.19,9.57-5.09,4.82,1.31,9.46-5.16,5.69-8.9,6.51-3.82,2.12-12.93-5.13-11.52,1.11-2.62,1.9-5.87.51-8.6-1.06-1.66-3.34-3.17-5.31-2.42-.52-5.98-6.94-4.88-9.37-.88-2.63-4.03-7.44-.01-6.36,3.79-4.19-3.5-7.8,1.35-5.3,5.38-2.4-.64-4.91,1.54-4.21,3.99.33,1.19,1.29,2.03,2.34,2.68Z"/>
                  <path class="cls-16" d="M305.44,253.1c1.52-1.91,7.19-3.43,9.34-1.88.9.72-.02,2.33-.9,1.25-.08-.1-.19-.19-.31-.24-1.44-.3-4.04.23-5.76.76-.51.05-2.55,1.17-2.37.11Z"/>
                  <path class="cls-16" d="M303.23,251.31c.85-.5,1.45-1.35,2.01-2.14,1.14-1.71,2.13-3.59,2.38-5.67.87-4.08-3.49-2.49-1.54-1.15-.02,1.13-.34,2.22-.73,3.26-.51,1.45-1.81,3.22-2.43,4.85-.21.3-.22.95.31.85Z"/>
                  <path class="cls-16" d="M305.39,251.6c2.14-3.05,4.7-5.87,7.34-8.5h0c.66-.4,1.48.38,1.11,1.05-.9,1.16-1.99,2.2-2.99,3.28-.57.36-5.64,6.33-5.46,4.16Z"/>
                  <path class="cls-5" d="M296.9,256.48c1.4-1.47,3.01-2.76,4.64-3.99,1.64-5.3-.21-11.57-4.65-15.2-.43-.39.19-1.03.61-.63,4.44,3.68,6.53,9.92,5.17,15.37,6.75.39,13.36,5.74,14.26,12.53-.35.89-.8-1.55-1.02-1.79-2.28-5.44-7.85-9.73-13.84-9.79-1.55,1.33-3.02,2.75-4.52,4.12-.37.23-.9-.24-.65-.62Z"/>
                </g>
                <path class="cls-2" d="M276.65,278.7c6.83-2.19,12.7-6.98,16.15-13.17-7.81-.76-14.21,5.73-16.15,13.17Z"/>
                <path class="cls-12" d="M277.02,277.78c6.02-6.03,8.99-14.92,7.84-23.47-4.83,7.06-7.36,14.87-7.84,23.47Z"/>
              </g>
              <g>
                <g>
                  <path class="cls-18" d="M300.08,146.33c2.05-2.46,10.17-7.58,11.47-8.26,1.3-.91,3.47-.69,4.04-2.45,1.25-8.83-8.38-10.81-11.51-2.21-.66,1.03-5.98,13.7-4,12.92Z"/>
                  <path class="cls-9" d="M304.96,128.37c-1.27.99-.81,2.92.26,3.82,1.43,1.29,3.58,1.36,5.38.81-.8,1.96-1.64,4.47-.32,6.35.53.78,1.6,1.18,2.46.69.24,3.42,3.54,4.66,5.57,1.65,3.34,5.8,9.43.84,6.18-4.56,3.36.42,6.1-4.59,3.29-6.83,4.18-3.35.61-9.28-4.24-7.55.59-1.95.91-4.32-.21-6.09-.83-1.05-2.48-1.88-3.77-1.15-.74-4.14-5.04-2.71-6.43.35-2.05-2.56-5.07.76-4.08,3.31-3.08-2.02-5.22,1.75-3.26,4.32-1.68-.2-3.24,1.59-2.61,3.23.3.8,1.01,1.29,1.77,1.64Z"/>
                  <path class="cls-16" d="M315.81,129.83c.91-1.5,4.67-3.15,6.23-2.28.66.41.14,1.64-.53.97-.06-.06-.14-.11-.23-.13-1-.06-2.73.58-3.87,1.13-.34.09-1.66,1.08-1.61.32Z"/>
                  <path class="cls-16" d="M314.19,128.8c.54-.44.9-1.1,1.23-1.71.66-1.32,1.22-2.74,1.25-4.22.33-2.95-2.54-1.38-1.12-.65.06.79-.09,1.59-.28,2.36-.25,1.07-1.02,2.45-1.34,3.65-.13.24-.09.69.26.56Z"/>
                  <path class="cls-16" d="M315.68,128.79c1.26-2.36,2.82-4.61,4.44-6.72h0c.42-.35,1.03.11.82.62-.53.91-1.21,1.75-1.82,2.61-.36.31-3.43,5.02-3.44,3.48Z"/>
                  <path class="cls-5" d="M310.23,133.08c.86-1.17,1.87-2.25,2.9-3.28.77-3.89-.89-8.09-4.15-10.18-.32-.23.06-.74.38-.5,3.26,2.12,5.09,6.29,4.52,10.24,4.62-.43,9.46,2.64,10.52,7.31-.18.66-.64-1-.81-1.15-1.9-3.58-5.97-6.02-10.05-5.44-.97,1.09-1.88,2.24-2.81,3.36-.23.2-.63-.07-.48-.37Z"/>
                </g>
                <path class="cls-2" d="M297.89,150.76c4.5-2.24,8.19-6.2,10.13-10.9-5.36.28-9.29,5.48-10.13,10.9Z"/>
                <path class="cls-12" d="M298.08,150.07c3.7-4.85,5.15-11.39,3.81-17.27-2.82,5.45-4.04,11.19-3.81,17.27Z"/>
              </g>
              <g>
                <g>
                  <path class="cls-18" d="M288.3,183.06c-1.57-3.64-9.54-12.56-10.87-13.82-1.24-1.53-3.97-2.04-4-4.33.17-4.99,5.66-9.38,10.43-6.97,3.08,1.57,3.9,5.26,4.41,8.39.62,3.66.96,7.36.99,11.07-.11.62.28,7.32-.97,5.66Z"/>
                  <path class="cls-9" d="M291.88,158.74c1.39-1.73.15-4.4-1.96-4.75,3.35-2.36,2.17-7.58-2.34-6.27,2.16-2.68-.26-7.67-3.72-5.36-.55-4.12-5.24-7.33-7.7-2.68-1.3-1.32-3.62-.92-5.03.04-2.03,1.7-2.53,4.62-2.55,7.14-5.24-3.76-11.82,2.02-7.99,7.47-4.26,1.66-2.8,8.57,1.45,9.26-5.98,5.26-.43,13.28,5.82,7.57,1.34,4.27,5.83,3.97,7.41,0,.87.88,2.33.78,3.26.04,2.31-1.76,2.22-5.03,1.99-7.64,1.98,1.28,4.62,1.96,6.85.93,1.65-.69,2.93-2.81,1.75-4.44,1.05-.14,2.09-.48,2.76-1.32Z"/>
                  <path class="cls-16" d="M275.35,157.97c0-.35-.2-.64-.39-.91-.07-.11-.16-.22-.21-.31-.09-.17-.21-.31-.33-.45-.43-.51-.9-.99-1.43-1.41-.54-.43-1.11-.82-1.71-1.15-.52-.29-1.09-.6-1.68-.71-.32-.06-.67-.06-.97.05-.43.15-.83.7-.57,1.13.04.12.12.22.24.28.11.05.26.06.38,0,.03,0,.07-.01.1-.02.08-.02.1-.04.12-.06.03-.01.06-.03.09-.04,0,0,.04-.01.07-.02.02,0,.07-.01.08-.01.03,0,.06,0,.09,0,.08,0-.07,0-.06,0,.03-.03.28.05.32.05,0,0,0,0,.01,0,.05.02.09.04.14.06.14.06.27.12.4.19.26.13.52.27.77.41.11.07.22.13.34.2.06.04.13.08.19.12.02.01.04.03.06.04,0,0,.02.01.03.02.24.16.48.33.72.51.47.35.92.72,1.36,1.11.12.11.23.23.35.33.07.05.16.1.19.13.06.06.12.12.18.18.25.25.46.49.8.59.18.05.3-.14.31-.29Z"/>
                  <path class="cls-16" d="M278.24,156.74c0-.17.01-.33.01-.5,0-.31-.02-.63-.05-.94-.06-.62-.15-1.24-.19-1.87-.02-.31-.03-.62-.03-.93,0-.14,0-.29,0-.43,0-.03.01-.28,0-.12,0-.08,0-.16.01-.24.04-.61.11-1.22.26-1.81.02-.08.04-.16.06-.24.01-.04.02-.08.03-.12,0,0,0-.01,0-.02,0,0,0,0,0,0,.05-.15.1-.31.17-.46.18.04.38-.02.5-.16.14-.17.21-.41.16-.63-.07-.31-.36-.55-.65-.63-.52-.13-.96.21-1.2.65-.19.35-.3.76-.41,1.14-.1.33-.17.67-.22,1.01-.23,1.47-.09,2.98.16,4.44.08.44.18.88.32,1.31.06.2.13.39.22.58.1.2.14.42.31.57.15.14.39.07.48-.1.07-.16.06-.3.06-.47Z"/>
                  <path class="cls-16" d="M275.9,156.78c0-.17-.04-.32-.08-.48-.04-.16-.05-.31-.08-.47-.08-.32-.17-.63-.25-.95-.16-.62-.35-1.23-.53-1.84-.36-1.23-.73-2.45-1.15-3.66-.11-.33-.23-.66-.34-.99-.06-.17-.12-.34-.18-.51-.07-.21-.13-.45-.27-.62h0c-.09-.12-.21-.21-.36-.26-.2-.06-.41-.04-.59.09-.22.15-.28.37-.29.62,0,.19.08.38.14.55l.15.45c.1.31.21.62.31.93.2.61.41,1.21.63,1.81.44,1.2.92,2.38,1.39,3.57.13.33.26.65.4.97.07.17.16.32.25.49.09.18.16.35.28.52.18.26.58.1.56-.21Z"/>
                  <path class="cls-5" d="M280.93,163.79c-.04-.25-.16-.48-.26-.71-.09-.22-.19-.44-.29-.66-.19-.44-.39-.88-.6-1.31-.36-.76-.74-1.49-1.15-2.22.02-.03.03-.07.03-.11.21-1.87.85-3.68,1.88-5.26,1.03-1.6,2.43-2.96,4.05-3.96.91-.56,1.89-.99,2.92-1.28.2-.06.3-.31.23-.5-.08-.21-.3-.29-.5-.23-1.93.55-3.69,1.59-5.17,2.95-1.47,1.35-2.65,3.04-3.41,4.88-.36.88-.62,1.8-.77,2.73-2.04-.79-4.28-1.02-6.45-.73-1.18.16-2.35.47-3.45.93-1.09.45-2.14,1.03-3.05,1.79-.51.42-.99.88-1.43,1.37-.45.5-.81,1.06-1.17,1.63-.1.16.17.33.28.18.34-.45.74-.85,1.14-1.25.39-.39.81-.76,1.26-1.08.89-.66,1.86-1.24,2.88-1.68,2.05-.89,4.33-1.3,6.54-1.09,1.27.12,2.46.42,3.61.93.35.77.69,1.54,1.03,2.32.19.43.37.86.55,1.29.09.21.17.42.26.64.1.24.17.51.31.72.21.32.79.13.72-.26Z"/>
                </g>
                <path class="cls-2" d="M289.31,189.09c-4.64-4.24-7.64-10.23-8.24-16.49,6.43,2.21,9.26,9.77,8.24,16.49Z"/>
                <path class="cls-12" d="M289.33,188.21c-2.69-7.05-1.99-15.32,1.85-21.82,1.39,7.45.72,14.68-1.85,21.82Z"/>
              </g>
              <path class="cls-12" d="M296.13,148.81c-7-9.64-9.86-22.19-7.73-33.92,3.94,4.31,6.21,9.79,6.92,15.58s1.29,12.52.8,18.34Z"/>
              <path class="cls-12" d="M302.14,111.67c-6.75-5.47-10.58-14.34-9.95-23.01,5.77,5.46,10.1,15.06,9.95,23.01Z"/>
              <path class="cls-12" d="M306.25,79.41c-5.34-8.97-6.28-20.41-2.49-30.13,5.33,9.38,6.26,20.03,2.49,30.13Z"/>
              <path class="cls-12" d="M303.36,111.82c.84-11.13,8.67-21.43,19.17-25.21-4.36,9.87-10.63,18.62-19.17,25.21Z"/>
              <path class="cls-12" d="M306.57,93.77c.2-10.24,3.86-20.73,9.91-28.99-1.09,10.37-4.19,20.27-9.91,28.99Z"/>
              <path class="cls-12" d="M309.49,58.32c-.98-10.93,2.21-22.18,8.78-30.98,1.57,11.29-1.84,21.94-8.78,30.98Z"/>
              <path class="cls-12" d="M285.06,231.05c2.37-15.15,14.89-28.19,29.94-31.16-11.7,9.84-20.75,18.94-29.94,31.16Z"/>
              <path class="cls-12" d="M286.32,204.9c.57-5.96-1.06-12.1-4.51-16.99-3.46-4.89-8.7-8.47-14.51-9.92,7.54,8.21,13.84,17.05,19.03,26.91Z"/>
            </g>
            <path class="cls-5" d="M323.29,72.76c-2.3.08-4.45,1.35-5.83,3.16-.21.27-.4.55-.58.85-.2.33-.42.71-.27,1.1.09.24.34.39.59.3.43-.14.58-.55.79-.91.04-.07.09-.15.13-.22,0-.01.09-.14.1-.15.09-.13.19-.27.3-.39.41-.51.88-.97,1.35-1.32,1.07-.8,2.25-1.36,3.55-1.66.44-.1.29-.77-.14-.76Z"/>
            <path class="cls-5" d="M321.58,66.75c.23-.62.42-1.25.55-1.89.13-.64.17-1.29.16-1.94,0-.36-.03-.72-.07-1.08-.04-.37-.15-.71-.24-1.07-.08-.3-.52-.19-.52.1,0,.3-.05.61-.06.91,0,.28-.02.55-.05.83-.06.6-.19,1.19-.31,1.78-.25,1.18-.62,2.18-1.16,3.26-.15.3-.3.6-.43.92-.07.16-.1.33-.17.49-.07.16-.16.31-.23.46-.09.2.14.47.34.31.24-.18.44-.4.67-.58.28-.23.49-.51.69-.8.35-.53.6-1.11.82-1.69Z"/>
            <path class="cls-5" d="M297.04,92.79c0-.21-.04-.42-.03-.63.01-.23-.02-.45-.06-.67-.08-.44-.16-.87-.21-1.31-.1-.86-.13-1.73-.08-2.6.1-1.72.53-3.41,1.19-5,.19-.46.4-.91.64-1.35.11-.21.22-.42.33-.63.12-.23.21-.46.35-.69.04-.07-.06-.12-.11-.07-.16.15-.34.28-.49.43-.16.18-.31.35-.45.54-.27.37-.52.75-.76,1.15-.46.78-.81,1.62-1.09,2.48-.27-.95-.64-1.87-1.13-2.72-.48-.84-1.09-1.6-1.85-2.21-.73-.58-1.6-1.11-2.52-1.3-.48-.1-.99-.14-1.48-.1-.53.04-.97.22-1.43.46-.14.08-.06.32.1.3.4-.05.82-.01,1.23,0,.39.01.79.1,1.16.22.7.22,1.51.59,2.11,1.06,1.44,1.12,2.28,2.76,2.8,4.51.15.51.28,1.03.43,1.54.03.11.06.21.09.31-.18,1.14-.22,2.31-.1,3.45.05.52.12,1.04.25,1.54.06.26.14.55.28.78.07.11.15.2.21.31.06.11.11.22.19.33.14.19.43.1.43-.14Z"/>
            <path class="cls-5" d="M317.91,27.09c.03-.33.03-.65,0-.98-.06-.6-.18-1.21-.39-1.77-.44-1.16-1.21-2.33-2.45-2.72-.59-.19-1.27-.13-1.83.12-.22.1-.12.46.12.37,1.3-.5,2.45.83,2.91,1.89.26.59.45,1.23.54,1.87.04.33.05.67.06,1.01.01.32.04.71.22.99.11.16.3.15.44.04.21-.18.35-.55.37-.82Z"/>
            <path class="cls-5" d="M319.26,20.3s.01-.02.02-.03c.02-.03.03-.06.05-.08,0-.02,0-.04,0-.05,0-.02-.02-.03-.04-.04-.02,0-.04-.01-.05,0-.02,0-.03.02-.04.04-.01.03-.03.06-.04.09l-.02.04s0,.01,0,.02c0,0,0,.02,0,.02-.19.04-.38.03-.57.08-.21.05-.4.12-.59.22-.38.19-.73.48-1.01.79-.28.31-.55.66-.73,1.03-.1.2-.15.41-.19.62-.04.19-.05.45.06.61.05.07.15.12.24.09.17-.08.28-.24.38-.39.1-.15.2-.3.29-.46.19-.32.37-.62.61-.89s.51-.53.8-.77c.13-.11.26-.23.39-.34.13-.12.26-.27.43-.34.12-.05.1-.2.01-.24Z"/>
          </g>
          <g>
            <path class="cls-12" d="M210.62,198.02c-1.15-14.87-11.99-28.52-26.21-33.03,6.54,12.94,14.99,23.84,26.21,33.03Z"/>
            <path class="cls-15" d="M196.19,96.55c-.55-4.7-1.11-9.44-2.51-13.96s-3.69-8.88-7.24-12.01c-.68,1.95-.52,4.07.35,5.94.38-1-1.47-2.61-2.49-2.29-1.02.32-1.55,1.54-1.4,2.6.15,1.06.81,1.98,1.52,2.78.71.81,1.49,1.57,1.98,2.52-.51.61-2.01-.36-1.74.39s.79,1.37,1.3,1.98c4.09,4.89,6.15,7.14,10.23,12.03Z"/>
            <path class="cls-12" d="M201.66,120.2c5.05-6.16,7.11-14.67,5.41-22.46-3.8,2.16-5.67,6.32-6.3,10.64-.63,4.33.06,7.52.89,11.81Z"/>
            <path class="cls-14" d="M243.82,412.31c-2.54-13.42-4.97-26.87-7.32-40.33-4.69-26.92-9.03-53.9-13.16-80.91-8.3-54.33-15.75-108.78-23.43-163.19-4.33-30.66-8.62-61.34-13.17-91.98-.2-1.34,1.85-1.82,2.07-.47,8.58,54.28,16.05,108.72,23.73,163.13,7.68,54.4,15.59,108.78,24.86,162.94,2.59,15.11,5.28,30.21,8.1,45.28,2.87,15.34,6.34,30.61,8.82,46.01.23,1.4-1.82,1.89-2.17.49-3.42-13.49-5.74-27.31-8.33-40.99Z"/>
            <g>
              <g>
                <path class="cls-7" d="M186.82,135.99c4.63,1.65,10.55,6.76,15.18,8.41-3.48-3.96-7.61-12.51-9.15-17.55-1.81.48-3.29,1.49-4.32,3.05-1.03,1.56-1.97,4.24-1.71,6.09Z"/>
                <path class="cls-15" d="M189.88,132.12c6.87.34,14.27-1.23,20.07-4.92-2.49-1.54-4.37-3.89-6.63-5.74s-5.31-3.09-8.1-2.19c2.95-1.99,5.19-5.02,6.23-8.42,1.05-3.4,1.62-7.27.3-10.58-1.91,2.26-4.67,3.6-7.39,4.77-2.72,1.17-5.54,2.26-7.78,4.2-2.24,1.94-3.81,4.95-3.16,7.84-3.53-5.83-10.26-9.62-17.07-9.35.45,5.43,3.72,10.6,8.12,13.82-2.42-1.46-5.26-.29-7.24,1.73-1.98,2.02-2.85,4.88-3.27,7.67-.42,2.8-.45,5.65-1.1,8.4,4.87.3,9.98-1.85,13.05-5.64-1.79,2.11-1.69,5.71-.88,8.35.81,2.64,2.15,5.15,2.44,7.9,1.65-1.93,4.14-3.44,6.36-4.68,2.22-1.25,4.47-2.62,5.91-4.72s1.72-6.44.14-8.44Z"/>
                <path class="cls-16" d="M184.02,122.28c-.18-.86-.42-4.31,1.15-3.57.09.1.13.3.04.42-1.28,2.14.27,4.95.74,7.2-.4.92-1.95-3.58-1.93-4.05Z"/>
                <path class="cls-16" d="M180.11,120.65c1.06-1.23,5.16,6.67,6.15,7.66-.01.69-2.11-2.25-2.47-2.44-.62-.94-4.56-4.32-3.68-5.22Z"/>
                <path class="cls-16" d="M177.23,125.84c1.27-2.62,7.09,2.05,8.6,3.14.16.13-.06.33-.21.26-2.37-1-4.68-2.55-7.2-3.06-.04.02-.18.04-.26.08.14-.06-.17.1-.14.09-.34.33-.95-.05-.79-.5Z"/>
                <path class="cls-7" d="M175.46,134.35c.37-.76,1.02-1.42,1.63-2,.61-.58,1.28-1.11,1.98-1.58,1.41-.95,3.03-1.63,4.71-1.96.48-.09.96-.15,1.44-.19.25-.02.49-.03.74-.04.12,0,.24,0,.35,0,.02,0,.05,0,.07,0,0-.83,0-1.66.17-2.48.2-.93.58-1.81,1.06-2.63,1.01-1.71,2.55-3.05,4.38-3.83.52-.22,1.06-.4,1.61-.5.27-.05.55-.08.82-.1.14-.01.29-.03.42,0,.16.03.3.04.46.03.11,0,.12.17.02.19-.24.04-.43.15-.66.21-.25.07-.49.14-.73.23-.43.15-.84.32-1.26.51-.85.38-1.63.89-2.34,1.5-1.36,1.16-2.27,2.66-2.84,4.34-.08.22-.13.45-.21.67-.09.25-.13.49-.19.74-.1.47-.18.94-.13,1.42,0,.03,0,.06,0,.09.52.36,1.04.72,1.54,1.11.31.24.61.49.91.74.15.12.3.25.43.4.12.14.26.31.26.5,0,.07-.06.15-.13.16-.35.05-.72-.3-.96-.51-.3-.26-.61-.52-.91-.8-.46-.43-.9-.88-1.33-1.33,0,0-.02,0-.03,0-.21.02-.42.06-.63.06-.21,0-.43.02-.64.03-.39.03-.79.09-1.18.16-.8.14-1.59.35-2.35.64-1.53.58-2.98,1.41-4.19,2.5-.34.31-.67.64-.97.98-.31.35-.59.73-.92,1.07-.22.23-.52-.08-.4-.33Z"/>
              </g>
              <path class="cls-12" d="M202.04,144.26c-.04-3.39-1.28-6.75-3.44-9.36-.44,1.8.25,3.71,1.15,5.34.9,1.62,1.63,2.3,2.29,4.03Z"/>
              <path class="cls-2" d="M202.65,147.08c-.58-4.7-4.28-8.86-8.88-9.98,1.5,4.72,4.41,7.84,8.88,9.98Z"/>
            </g>
            <g>
              <g>
                <path class="cls-7" d="M219.6,163.81c-3.45,2.83-6.93,9-10.38,11.83,1.76-4.45,2.67-13.01,2.44-17.79,1.69-.14,3.26.26,4.63,1.28,1.36,1.02,2.98,3.01,3.32,4.68Z"/>
                <path class="cls-15" d="M215.8,161.44c-5.76,2.39-12.56,3.32-18.64,1.94,1.66-2.07,2.54-4.65,3.9-6.93,1.36-2.28,3.59-4.26,6.24-4.35-3.13-.8-5.96-2.7-7.9-5.28-1.93-2.58-3.61-5.71-3.5-8.94,2.32,1.35,5.09,1.65,7.77,1.81s5.42.24,7.93,1.2c2.5.97,4.77,3.06,5.1,5.72,1.22-6.06,5.81-11.35,11.71-13.2,1.28,4.78.07,10.19-2.7,14.28,1.62-1.99,4.4-1.85,6.71-.74,2.31,1.12,3.93,3.29,5.14,5.55,1.21,2.26,2.12,4.69,3.51,6.84-4.07,1.75-9.08,1.47-12.87-.82,2.17,1.25,3.19,4.36,3.31,6.86.12,2.5-.26,5.06.34,7.49-2-1.15-4.59-1.67-6.86-2.05-2.28-.39-4.62-.87-6.49-2.22s-3.43-4.97-2.7-7.16Z"/>
                <path class="cls-16" d="M217.8,151.25c-.11-.79-.96-3.81-2.07-2.7-.05.12-.02.3.09.37,1.75,1.44,1.28,4.31,1.57,6.37.62.66.57-3.65.41-4.04Z"/>
                <path class="cls-16" d="M220.63,148.66c-1.28-.72-2.37,7.27-2.91,8.42.22.59,1.11-2.56,1.36-2.84.24-.99,2.57-5.08,1.54-5.58Z"/>
                <path class="cls-16" d="M224.68,152.21c-1.89-1.85-5.43,3.92-6.38,5.31-.09.16.15.26.26.15,1.72-1.58,3.21-3.61,5.21-4.82.04,0,.17-.02.24-.01-.13,0,.17.04.15.03.39.18.8-.33.52-.66Z"/>
                <path class="cls-7" d="M228.8,158.93c-.55-.54-1.31-.9-2.01-1.21-.7-.31-1.43-.56-2.17-.75-1.5-.38-3.09-.47-4.62-.23-.43.07-.86.16-1.29.27-.22.06-.43.12-.64.19-.1.03-.2.07-.3.11-.02,0-.04.02-.06.03-.26-.71-.5-1.42-.91-2.06-.46-.73-1.05-1.37-1.71-1.92-1.38-1.15-3.11-1.83-4.91-1.93-.51-.03-1.02-.01-1.53.07-.25.04-.49.1-.73.17-.12.03-.25.06-.36.12-.13.07-.24.12-.38.17-.09.03-.05.19.04.17.22-.04.41,0,.63-.02.23-.02.46-.03.69-.03.41,0,.82.02,1.23.05.84.07,1.67.26,2.46.56,1.51.57,2.75,1.57,3.75,2.83.13.17.25.35.38.51.15.18.26.37.39.58.23.37.44.75.55,1.17,0,.03.02.05.03.08-.33.47-.66.94-.97,1.42-.19.3-.37.61-.55.91-.09.15-.18.3-.24.47-.06.16-.13.34-.07.51.02.06.1.11.16.09.31-.06.53-.47.67-.73.18-.32.37-.63.53-.96.26-.51.5-1.02.73-1.54,0,0,.02,0,.03,0,.19-.05.37-.08.56-.14.19-.06.37-.12.56-.17.35-.09.7-.17,1.05-.23.73-.12,1.47-.19,2.21-.17,1.48.02,2.97.29,4.34.85.39.16.77.34,1.13.54.37.2.73.44,1.11.63.26.13.42-.23.24-.4Z"/>
              </g>
              <path class="cls-12" d="M209.14,175.52c-1-2.91-.98-6.16.07-9.05.92,1.4.92,3.25.65,4.91-.27,1.66-.69,2.46-.72,4.14Z"/>
              <path class="cls-2" d="M209.49,178.12c-.94-4.19.94-8.87,4.53-11.24.17,4.49-1.37,8.04-4.53,11.24Z"/>
            </g>
            <g>
              <g>
                <path class="cls-7" d="M196.93,207.07c4.54,1.52,10.38,6.39,14.92,7.91-3.46-3.79-7.63-12.04-9.21-16.92-1.75.5-3.17,1.51-4.15,3.05-.98,1.54-1.84,4.16-1.55,5.96Z"/>
                <path class="cls-15" d="M199.84,203.24c6.69.21,13.87-1.45,19.44-5.15-2.45-1.45-4.32-3.7-6.56-5.47-2.24-1.77-5.22-2.91-7.92-1.99,2.83-1.99,4.96-4.97,5.91-8.3.96-3.33,1.45-7.11.11-10.3-1.82,2.24-4.48,3.59-7.11,4.77-2.63,1.19-5.35,2.3-7.5,4.23-2.14,1.92-3.62,4.89-2.94,7.68-3.53-5.61-10.15-9.18-16.78-8.79.54,5.28,3.81,10.25,8.15,13.3-2.38-1.38-5.12-.18-7.01,1.81-1.89,2-2.69,4.8-3.04,7.52-.36,2.73-.34,5.51-.92,8.2,4.75.21,9.68-1.98,12.6-5.72-1.7,2.08-1.54,5.58-.71,8.14.83,2.56,2.18,4.97,2.51,7.64,1.57-1.91,3.97-3.42,6.1-4.67,2.14-1.25,4.31-2.63,5.67-4.7,1.36-2.07,1.55-6.29-.01-8.21Z"/>
                <path class="cls-16" d="M193.96,193.77c-.19-.84-.49-4.18,1.05-3.49.09.1.13.29.05.4-1.21,2.11.35,4.81.85,6.99-.37.9-1.97-3.45-1.95-3.9Z"/>
                <path class="cls-16" d="M190.13,192.25c1.01-1.21,5.14,6.4,6.12,7.34,0,.68-2.09-2.15-2.45-2.33-.62-.9-4.51-4.12-3.67-5.01Z"/>
                <path class="cls-16" d="M187.42,197.36c1.19-2.57,6.94,1.87,8.42,2.9.16.13-.05.32-.2.25-2.33-.93-4.6-2.4-7.06-2.85-.04.02-.18.04-.25.08.13-.06-.16.1-.13.09-.32.33-.93-.03-.77-.47Z"/>
                <path class="cls-7" d="M185.85,205.67c.35-.75.97-1.4,1.55-1.98.58-.58,1.22-1.1,1.9-1.58,1.36-.95,2.92-1.64,4.55-1.99.46-.1.93-.17,1.4-.21.24-.02.48-.04.72-.05.11,0,.23-.01.34,0,.02,0,.05,0,.07,0,0-.81-.03-1.62.12-2.41.18-.91.53-1.78.99-2.58.95-1.68,2.43-3.02,4.19-3.8.5-.22,1.02-.4,1.56-.52.26-.05.53-.09.8-.11.14-.01.28-.04.41-.01.15.03.29.03.45.02.11,0,.12.17.02.19-.23.04-.41.15-.64.22-.24.07-.47.15-.7.23-.41.16-.82.33-1.22.52-.82.39-1.57.9-2.25,1.5-1.3,1.15-2.16,2.63-2.69,4.27-.07.22-.12.44-.19.66-.08.24-.12.47-.17.73-.09.46-.16.92-.1,1.39,0,.03,0,.06,0,.09.51.34,1.02.69,1.52,1.05.31.22.6.47.89.71.15.12.3.24.42.38.12.13.26.29.27.48,0,.07-.06.14-.12.15-.34.06-.71-.28-.95-.48-.3-.25-.61-.5-.9-.76-.45-.41-.89-.84-1.32-1.27,0,0-.02,0-.03,0-.21.02-.4.06-.61.07-.21,0-.42.02-.63.04-.38.04-.76.1-1.14.17-.78.16-1.54.37-2.28.66-1.48.59-2.87,1.42-4.03,2.51-.33.31-.64.63-.93.97-.3.35-.56.72-.87,1.06-.21.23-.51-.07-.39-.31Z"/>
              </g>
              <path class="cls-12" d="M211.89,214.84c-.1-3.3-1.36-6.55-3.51-9.05-.39,1.76.31,3.61,1.21,5.17.9,1.56,1.63,2.21,2.3,3.88Z"/>
              <path class="cls-2" d="M212.53,217.58c-.65-4.56-4.32-8.54-8.82-9.55,1.54,4.57,4.43,7.55,8.82,9.55Z"/>
            </g>
            <g>
              <g>
                <path class="cls-7" d="M230.68,243.6c-3.41,3.3-6.57,10.15-9.99,13.45,1.48-4.87,1.7-14.04,1.04-19.09,1.79-.3,3.49,0,5.02.96s3.42,2.94,3.93,4.68Z"/>
                <path class="cls-15" d="M226.44,241.41c-5.9,3.04-13.04,4.62-19.61,3.68,1.58-2.35,2.29-5.16,3.54-7.7,1.25-2.54,3.44-4.83,6.25-5.16-3.39-.58-6.56-2.34-8.84-4.92-2.28-2.57-4.33-5.75-4.49-9.18,2.58,1.23,5.55,1.3,8.4,1.24,2.86-.06,5.78-.22,8.52.59,2.74.81,5.33,2.83,5.91,5.63.77-6.54,5.18-12.55,11.28-15.03,1.77,4.96.96,10.8-1.63,15.39,1.55-2.25,4.51-2.35,7.05-1.37,2.55.98,4.45,3.15,5.94,5.44,1.48,2.29,2.65,4.79,4.32,6.95-4.16,2.21-9.51,2.35-13.73.25,2.41,1.14,3.76,4.35,4.11,6.99.35,2.64.16,5.39,1.01,7.92-2.23-1.04-5.01-1.37-7.46-1.58-2.45-.21-4.98-.52-7.08-1.79-2.1-1.27-4.08-4.98-3.49-7.36Z"/>
                <path class="cls-16" d="M227.67,230.42c-.18-.83-1.35-3.96-2.43-2.68-.04.13,0,.32.13.38,1.98,1.38,1.73,4.46,2.22,6.63.72.65.29-3.93.08-4.33Z"/>
                <path class="cls-16" d="M230.45,227.43c-1.42-.65-1.88,7.93-2.35,9.19.29.61.95-2.82,1.2-3.13.17-1.07,2.29-5.61,1.15-6.06Z"/>
                <path class="cls-16" d="M235.06,230.85c-2.16-1.79-5.42,4.63-6.31,6.19-.09.18.18.27.29.14,1.69-1.83,3.1-4.11,5.11-5.56.04,0,.18-.04.26-.04-.14,0,.19.02.16.02.43.16.82-.42.49-.75Z"/>
                <path class="cls-7" d="M240.02,237.62c-.63-.52-1.47-.84-2.23-1.11-.77-.27-1.57-.47-2.37-.6-1.62-.28-3.32-.23-4.92.16-.45.11-.9.25-1.34.4-.22.08-.45.17-.67.26-.1.04-.21.09-.31.14-.02.01-.04.02-.06.03-.34-.73-.66-1.46-1.14-2.11-.55-.74-1.23-1.36-1.99-1.89-1.57-1.1-3.46-1.67-5.38-1.62-.54.01-1.09.07-1.62.2-.26.06-.51.15-.76.24-.13.05-.26.08-.38.16-.13.09-.25.15-.39.21-.1.04-.04.2.06.17.22-.06.44-.04.66-.08.24-.04.49-.07.73-.09.44-.04.87-.05,1.31-.06.9,0,1.79.13,2.66.38,1.66.47,3.06,1.43,4.23,2.68.16.17.29.35.45.51.17.18.31.37.46.58.27.38.53.75.68,1.2,0,.03.02.05.04.08-.31.52-.62,1.05-.91,1.59-.18.33-.34.68-.5,1.01-.08.17-.16.34-.22.52-.05.17-.11.37-.03.54.03.06.11.1.18.08.32-.09.52-.55.65-.83.16-.35.33-.7.48-1.06.23-.56.44-1.13.64-1.7,0,0,.02,0,.03,0,.2-.07.39-.12.58-.2.19-.08.38-.16.58-.23.36-.13.73-.24,1.1-.33.76-.19,1.54-.33,2.32-.38,1.57-.1,3.18.05,4.68.53.42.14.84.29,1.25.48.42.18.81.41,1.23.57.29.11.42-.28.22-.45Z"/>
              </g>
              <path class="cls-12" d="M220.6,256.94c-1.32-3-1.57-6.45-.71-9.61,1.1,1.41,1.26,3.37,1.12,5.15-.14,1.78-.52,2.67-.41,4.46Z"/>
              <path class="cls-2" d="M221.19,259.67c-1.37-4.37.23-9.5,3.83-12.32.57,4.75-.75,8.66-3.83,12.32Z"/>
            </g>
            <path class="cls-12" d="M196.98,102.62c-.91-9.7-7.72-18.6-16.85-22.01,2.89,9.05,9.22,16.34,16.85,22.01Z"/>
            <path class="cls-12" d="M191.52,66.34c-.79-8.93-7.14-17.12-15.58-20.13,3.52,7.91,8.78,14.77,15.58,20.13Z"/>
            <path class="cls-12" d="M198.03,94.63c6.06-5,9.14-13.36,7.78-21.1-5.16,5.53-8.75,13.6-7.78,21.1Z"/>
            <path class="cls-12" d="M189.05,52.37c2.95-4.27,3.45-9.86,2.45-14.95-1-5.09-3.36-9.8-5.79-14.38-2.13,10.2-1.76,20.24,3.34,29.33Z"/>
            <path class="cls-12" d="M224.12,297.15c-4.5-21.9-20.54-41.08-41.3-49.37,7.93,19.45,30.98,31.07,41.3,49.37Z"/>
            <path class="cls-2" d="M214.89,217.53c.12-6.29,2.33-12.53,6.21-17.49,3.88-4.96,9.4-8.61,15.48-10.24-6.3,9.9-14.02,18.85-21.69,27.73Z"/>
            <path class="cls-15" d="M197.41,93.06c3.07-6.18,3.72-13.52,1.78-20.15-1.44,1.29-2.02,2.94-1.69,4.84.12-1.56-.24-3.95-1.05-5.29-1.65,2.06-1.3,5.01-.86,7.61.81,4.84,1.01,8.14,1.83,12.98Z"/>
          </g>
          <g>
            <path class="cls-17" d="M252.11,96.76c-.43-5.38-.86-10.76-1.28-16.13-.18-1.28.02-3.21,1.59-3.38.7-.04,1.74,1.91,1.49,2.56-1.12-3.74,4.13-11.99,5.43-6.17,1.13-2.21,4.58-2.11,5.58.16.67,1.41-.09,3.32-.56,4.81,1.47.43,2.06,2.37,1.51,3.81-1.2,3-4.96,3.5-7.16,5.51-2.82,2.57-4.75,5.49-6.59,8.84Z"/>
            <path class="cls-17" d="M238.81,62.4c.29-2.69-.83-6.35-3.63-7.23-.84-.15-1.82.31-2,1.14-1.94-7.07-12.54-.73-2.89,12.25-2.72-2.18-4.16.14-2.68,2.79,1.33,2.73,3.58,5.01,6.29,6.39-8.03,1.35,3.91,9.61,7.21,9.76-.17,3.31,1.42,6.7,4.21,8.48-1.35-8.62-3.5-17.12-6.42-25.35"/>
            <path class="cls-17" d="M246.46,45.27c3.55-7.75,4.17-16.81,1.69-24.96-.34-1.11.14-2.81-.22-3.91-.37-1.1-1.04-2.14-2.03-2.74-2.1-1.48-5.42.63-3.89,3.05-8.14.21,1.28,24.99,4.45,28.56Z"/>
            <path class="cls-14" d="M254.65,441.34c-8.22-133.86-12.48-268.15-9.71-402.25.03-.83,1.3-.93,1.31-.08.22,130.87,2.18,261.77,10.41,392.41.19,3.25.38,6.51.52,9.77.07,1.63-2.4,1.79-2.53.16Z"/>
            <g>
              <g>
                <path class="cls-8" d="M249.49,277.57c2.23-3.99,12.45-13.29,14.13-14.58,1.6-1.61,4.8-1.87,5.1-4.49-.76-12.74-15.2-13.05-17.21-.13-.65,1.62-4.63,20.82-2.02,19.21Z"/>
                <path class="cls-17" d="M251.3,251.05c-1.54,1.73-.32,4.31,1.49,5.31,2.43,1.45,5.55.98,7.98-.25-.58,2.97-1.07,6.71,1.38,9.01.98.96,2.65,1.25,3.75.34,1.34,4.75,6.45,5.63,8.51.89,6.49,7.3,13.82-1.26,7.58-8.01,4.96-.28,7.46-8.04,2.76-10.46,5.05-5.8-1.82-13.22-8.29-9.52.28-2.9.06-6.31-2.07-8.51-1.5-1.27-4.12-2-5.77-.64-2.27-5.64-8.04-2.51-9.16,2.16-3.7-3.06-7.07,2.38-4.91,5.71-5.02-2.04-7.01,3.81-3.44,6.92-2.47.15-4.21,3.07-2.82,5.22.67,1.04,1.83,1.55,3.02,1.84Z"/>
                <path class="cls-16" d="M267.35,250.29c.88-2.34,5.8-5.64,8.31-4.83,1.06.41.67,2.27-.48,1.5-.1-.07-.24-.12-.37-.13-1.46.17-3.77,1.52-5.25,2.59-.47.21-2.07,1.95-2.22.86Z"/>
                <path class="cls-16" d="M264.73,249.27c.66-.75.97-1.77,1.27-2.72.57-2.02.96-4.17.58-6.27-.38-4.23-4.06-1.29-1.8-.62.31,1.1.34,2.26.28,3.39-.05,1.56-.76,3.71-.87,5.48-.11.36.07.99.54.73Z"/>
                <path class="cls-16" d="M266.86,248.86c1.12-3.64,2.72-7.21,4.45-10.6h0c.5-.59,1.52-.11,1.36.67-.51,1.42-1.24,2.77-1.86,4.14-.43.54-3.48,7.95-3.95,5.79Z"/>
                <path class="cls-8" d="M260.25,256.31c.89-1.87,2.04-3.65,3.22-5.36-.01-5.67-3.64-11.15-8.94-13.25-.52-.24-.13-1.06.39-.81,5.31,2.15,9.15,7.53,9.48,13.24,6.53-1.79,14.4,1.27,17.27,7.57-.07.97-1.22-1.24-1.5-1.4-3.78-4.55-10.34-6.92-16.05-5.05-1.08,1.79-2.05,3.64-3.07,5.45-.28.34-.93.06-.8-.39Z"/>
              </g>
              <path class="cls-2" d="M247.62,284.36c5.83-4.32,9.99-10.84,11.43-17.96-7.65,1.78-11.79,10.11-11.43,17.96Z"/>
              <path class="cls-12" d="M247.7,283.35c3.93-7.78,4.11-17.35.47-25.27-2.49,8.39-2.57,16.78-.47,25.27Z"/>
            </g>
            <g>
              <g>
                <path class="cls-8" d="M244.78,208.34c-2.02-3.16-11.03-10.24-12.51-11.2-1.42-1.23-4.17-1.28-4.5-3.41.33-10.49,12.72-11.5,14.78-1.03.6,1.29,4.51,16.82,2.23,15.64Z"/>
                <path class="cls-17" d="M242.54,180.9c2.99-2.74,1.13-7.43-3.13-5.49,1.77-2.85-1.27-7.13-4.37-4.42-1.08-3.77-6.12-6.02-7.92-1.28-1.45-1.03-3.68-.28-4.94.84-1.78,1.92-1.88,4.72-1.56,7.08-5.65-2.68-11.36,3.76-6.88,8.25-3.97,2.23-1.63,8.46,2.64,8.43-5.19,5.86,1.33,12.49,6.72,6.16,1.88,3.78,6.25,2.79,7.28-1.18.97.69,2.39.36,3.21-.48,2.04-2.02,1.52-5.06.95-7.46,2.11.88,4.8,1.1,6.86-.22,1.53-.91,2.51-3.1,1.14-4.43,3.69-.66,3.98-5.51,0-5.8Z"/>
                <path class="cls-16" d="M228.74,186.93c-.81-1.87-5.13-4.31-7.26-3.51-.9.39-.52,1.89.45,1.2.09-.06.2-.11.31-.13,1.26.07,3.27,1.04,4.57,1.85.41.15,1.83,1.49,1.93.59Z"/>
                <path class="cls-16" d="M230.68,178.09c1.92-.67-1.31-2.89-1.53.6-.26,2.49.3,5.27,1.82,7.27,1.46.6-1.31-5.63-.29-7.87Z"/>
                <path class="cls-16" d="M229.12,185.73c-1.06-2.93-2.52-5.76-4.09-8.45h0c-.45-.46-1.31,0-1.15.62.47,1.13,1.13,2.2,1.71,3.3.39.42,3.19,6.33,3.54,4.54Z"/>
                <path class="cls-8" d="M234.99,191.49c-.82-1.49-1.85-2.88-2.9-4.22-.13-4.65,2.84-9.34,7.33-11.34,1.16-2.87-8.67,4.05-8.16,10.72-5.65-1.12-12.33,1.81-14.63,7.12.08.8,1.01-1.08,1.26-1.23,3.13-3.93,8.71-6.22,13.66-5,.97,1.41,1.86,2.88,2.77,4.31.25.26.8,0,.67-.36Z"/>
              </g>
              <path class="cls-2" d="M246.56,213.81c-5.12-3.23-8.86-8.36-10.28-14.11,6.61,1.05,10.39,7.66,10.28,14.11Z"/>
              <path class="cls-12" d="M246.47,212.99c-3.57-6.17-3.97-14.01-1.06-20.7,2.35,6.75,2.64,13.62,1.06,20.7Z"/>
            </g>
            <g>
              <path class="cls-8" d="M245.33,308.22c-2.83-3.47-14.47-8.81-16.33-9.76-1.84-1.27-5.04-.96-5.75-3.44-1.23-12.45,13.01-15.29,17.01-3.16.9,1.45,7.91,17.46,5.07,16.37Z"/>
              <path class="cls-17" d="M238.44,277.88c3.05-3.63.17-8.94-4.48-6.08,1.62-3.6-2.57-8.27-5.75-4.66-1.83-4.31-8.03-6.32-9.4-.47-1.85-1.02-4.32.15-5.61,1.64-1.77,2.5-1.45,5.83-.73,8.59-6.97-2.43-12.61,5.95-6.72,10.67-4.27,3.16-.59,10.23,4.36,9.62-5.12,7.62,3.46,14.6,8.75,6.4,2.77,4.23,7.69,2.47,8.28-2.36,1.23.69,2.83.11,3.66-.99,2.06-2.66.99-6.19-.04-8.95,2.59.77,5.75.67,7.93-1.16,1.64-1.28,2.44-3.99.64-5.39,4.24-1.31,3.72-7.06-.9-6.86Z"/>
              <path class="cls-16" d="M223.34,286.85c-1.23-2.11-6.62-4.43-8.98-3.2-.99.58-.31,2.31.71,1.36.09-.09.22-.16.34-.19,1.47-.09,3.96.8,5.6,1.58.5.12,2.35,1.52,2.33.44Z"/>
              <path class="cls-16" d="M224.23,276.12c2.13-1.05-1.97-3.25-1.69.91.08,2.98,1.15,6.2,3.23,8.36,1.8.51-2.37-6.41-1.54-9.27Z"/>
              <path class="cls-16" d="M223.6,285.37c-1.68-3.32-3.81-6.49-6.05-9.46h0c-.59-.49-1.52.16-1.24.88.72,1.28,1.66,2.46,2.49,3.68.51.44,4.68,7.07,4.81,4.9Z"/>
              <path class="cls-8" d="M231.3,291.41c-1.18-1.65-2.59-3.16-4.02-4.61-.87-5.48,1.86-11.42,6.78-14.38.93-3.53-9.43,5.84-7.83,13.76-6.74-.58-14.04,3.77-15.9,10.36.22.93,1.01-1.42,1.27-1.62,3.03-5.06,9.16-8.51,15.09-7.71,1.34,1.54,2.6,3.16,3.88,4.73.33.28.93-.11.73-.52Z"/>
            </g>
            <g>
              <g>
                <path class="cls-8" d="M242.88,136.7c-1.68-2.73-8.98-8.96-10.18-9.81-1.15-1.08-3.34-1.18-3.65-3,.02-8.92,9.84-9.51,11.71-.54.51,1.11,3.96,14.41,2.12,13.36Z"/>
                <path class="cls-17" d="M240.49,113.29c2.31-2.26.73-6.3-2.61-4.74,1.34-2.38-1.17-6.1-3.56-3.86-.94-3.23-4.99-5.26-6.32-1.27-1.18-.91-2.93-.32-3.9.6-1.37,1.59-1.38,3.97-1.08,5.99-4.54-2.41-8.93,2.95-5.27,6.87-3.1,1.81-1.1,7.16,2.29,7.23-3.98,4.87,1.33,10.66,5.47,5.39,1.58,3.26,5.03,2.51,5.75-.84.78.61,1.9.36,2.54-.33,1.57-1.67,1.1-4.27.59-6.33,1.7.8,3.84,1.04,5.44-.03,1.19-.74,1.92-2.58.81-3.74,3.02-.51,2.89-4.71-.14-4.94Z"/>
                <path class="cls-16" d="M229.67,118.12c-.69-1.61-4.17-3.78-5.84-3.15-.71.31-.37,1.6.39,1.03.07-.05.16-.09.24-.1,1,.08,2.62.96,3.67,1.67.33.14,1.49,1.31,1.54.55Z"/>
                <path class="cls-16" d="M231.01,110.63c1.51-.53-1.11-2.49-1.2.48-.15,2.12.35,4.49,1.61,6.22,1.15.56-1.18-5.12-.41-6.7Z"/>
                <path class="cls-16" d="M229.95,117.1c-.91-2.51-2.13-4.96-3.44-7.28h0c-2.14-.84.26,2.69.53,3.34.31.36,2.68,5.46,2.91,3.94Z"/>
                <path class="cls-8" d="M234.73,122.13c-.68-1.28-1.53-2.49-2.4-3.66-.21-3.96,2.04-7.88,5.57-9.48.83-2.42-6.81,3.32-6.24,8.94-4.51-1.08-9.75,1.26-11.45,5.74.08.68.78-.9.97-1.02,2.4-3.27,6.77-5.1,10.73-3.95.42.32,2.63,5.19,2.83,3.43Z"/>
              </g>
              <path class="cls-2" d="M244.42,141.39c-4.14-2.86-7.21-7.31-8.47-12.24,5.27,1.04,8.41,6.75,8.47,12.24Z"/>
              <path class="cls-12" d="M244.32,140.69c-2.97-5.33-3.47-12.01-1.3-17.64,2.02,5.79,2.4,11.65,1.3,17.64Z"/>
            </g>
            <g>
              <g>
                <path class="cls-8" d="M248.78,150.34c2.07-3.38,11.24-11.07,12.73-12.13,1.44-1.34,4.22-1.45,4.57-3.71-.22-11.06-12.7-11.82-14.89-.72-.62,1.38-4.73,17.85-2.41,16.55Z"/>
                <path class="cls-17" d="M251.27,127.45c-1.4,1.44-.43,3.72,1.1,4.64,2.06,1.34,4.77,1.04,6.91.06-.6,2.55-1.16,5.77.88,7.85.82.86,2.25,1.17,3.23.42.99,4.16,5.39,5.1,7.33,1.06,5.37,6.54,12.01-.61,6.84-6.67,4.31-.07,6.73-6.7,2.76-8.95,4.57-4.84-1.12-11.5-6.84-8.53.34-2.5.27-5.46-1.5-7.43-1.25-1.15-3.49-1.88-4.97-.76-1.77-4.96-6.87-2.45-8,1.55-3.1-2.78-6.2,1.81-4.45,4.77-4.28-1.94-6.2,3.06-3.21,5.87-2.14.04-3.75,2.51-2.62,4.42.54.93,1.53,1.41,2.55,1.7Z"/>
                <path class="cls-16" d="M265.19,127.35c.93-2.05,5.11-4.64,7.36-3.89.91.39.5,1.98-.47,1.28-.09-.06-.2-.11-.31-.12-1.27.1-3.31,1.18-4.63,2.06-.41.17-1.86,1.62-1.95.67Z"/>
                <path class="cls-16" d="M264.14,124.07c.57-1.73.97-3.58.72-5.4-.16-3.64-3.47-1.29-1.54-.6.23.96.21,1.97.12,2.94-.1,1.35-.79,3.18-.94,4.72,0,2.12,1.56-1.07,1.64-1.66Z"/>
                <path class="cls-16" d="M264.81,126.09c1.1-3.11,2.6-6.14,4.22-9.02h0c.46-.5,1.32-.04,1.16.62-.49,1.21-1.17,2.35-1.76,3.52-.39.45-3.29,6.76-3.62,4.87Z"/>
                <path class="cls-8" d="M258.84,132.31c.84-1.59,1.89-3.08,2.97-4.52.19-4.91-2.76-9.78-7.27-11.78-.44-.23-.08-.92.37-.68,4.52,2.04,7.66,6.83,7.74,11.79,5.71-1.33,12.42,1.6,14.68,7.15-.12.83-1-1.11-1.25-1.27-3.11-4.07-8.71-6.35-13.72-4.93-.99,1.51-1.9,3.08-2.84,4.61-.25.28-.8.02-.68-.36Z"/>
              </g>
              <path class="cls-2" d="M246.92,156.15c5.2-3.53,9.02-9.04,10.52-15.14-6.68,1.27-10.56,8.34-10.52,15.14Z"/>
              <path class="cls-12" d="M247.03,155.28c3.67-6.6,4.16-14.87,1.29-21.86-2.44,7.18-2.81,14.43-1.29,21.86Z"/>
            </g>
            <path class="cls-12" d="M246.44,146.83c8.31-8.54,12.93-20.56,12.5-32.47-9.42,7.7-11.15,21.09-12.5,32.47Z"/>
            <path class="cls-12" d="M245.8,109.21c7.46-4.45,12.52-12.68,13.13-21.35-6.49,4.58-12.15,13.47-13.13,21.35Z"/>
            <path class="cls-12" d="M246.34,76.7c6.56-8.11,9.14-19.3,6.77-29.47-6.62,8.52-9.05,18.93-6.77,29.47Z"/>
            <path class="cls-12" d="M244.57,109.19c.76-11.14-5.52-22.45-15.37-27.69,2.9,10.4,7.86,19.95,15.37,27.69Z"/>
            <path class="cls-12" d="M243.97,90.87c1.27-10.16-.86-21.07-5.66-30.11-.41,10.42,1.25,20.66,5.66,30.11Z"/>
            <path class="cls-12" d="M246.15,55.36c2.53-10.68.98-22.27-4.27-31.91-3.16,10.95-1.32,21.98,4.27,31.91Z"/>
            <path class="cls-12" d="M245.64,229.81c-.18-15.34-10.71-30.03-25.18-35.12,10.17,11.41,17.83,21.71,25.18,35.12Z"/>
            <path class="cls-12" d="M248.12,203.75c.4-12.17,10.54-22.87,22.68-23.91-8.63,7.05-16.13,14.89-22.68,23.91Z"/>
            <path class="cls-8" d="M230.43,67.68c3.23.06,7.77,6.34,5.24,6.23-.48-.24-.53-.81-.75-1.24-.35-.77-.9-1.53-1.46-2.1-.94-.95-2.03-1.67-3.28-2.16-.42-.17-.18-.81.25-.73Z"/>
            <path class="cls-8" d="M232.98,61.98c-.28-1.28-.39-2.6-.16-3.9.04-.41.61-3.15,1.11-1.91-.47,3.05.23,6.02,1.15,8.91-.32,1.43-2.23-2.59-2.1-3.1Z"/>
            <path class="cls-8" d="M253.54,91.26c1.42-4.51,1.63-8.62-.27-13.06,1.18.58,1.94,3.47,2.21,4.9,1.31-3.38,5.58-7.06,9.16-4.61.13.09.02.32-.14.28-.78-.17-1.6-.26-2.4-.13-3.44.4-5.31,3.62-6.44,6.58-.07,2-.21,4.31-1.5,5.92-.11.28-.61.61-.64.1Z"/>
            <path class="cls-8" d="M242.28,23.25c.08-2.54,2.53-6.27,5.38-4.62.2.13.05.47-.17.35-1.98-.89-3.49,1.62-3.95,3.22-.21.63-.14,1.39-.57,1.94-.48.38-.73-.54-.69-.89Z"/>
            <path class="cls-8" d="M241.91,16.33c-.16-.3.14-.26.13.02,2.84.37,3.24,5.29,1.95,3.36-.45-1.19-1.18-2.26-2.1-3.14-.11-.07-.07-.21.02-.24Z"/>
          </g>
          <g>
            <path class="cls-12" d="M311.1,253.46c3.56-14.48,16.47-26.19,31.24-28.32-8.56,11.7-18.67,21.09-31.24,28.32Z"/>
            <path class="cls-3" d="M341.85,155.69c2.51-8.91,5.63-18.83,13.85-24.04.35,2.03-.15,4.1-1.31,5.81-.21-1.05,1.88-2.33,2.83-1.85.96.48,1.28,1.77.95,2.8-.68,2.11-3.07,2.97-4.31,4.66.41.68,2.04-.02,1.65.67-4.68,5.02-8.61,7.32-13.66,11.95Z"/>
            <path class="cls-12" d="M332.6,178.13c-3.98-6.9-4.62-15.63-1.68-23.04,6.69,5.75,4.74,15.76,1.68,23.04Z"/>
            <path class="cls-14" d="M239.05,471.65c2.22-6.38,3.97-11.53,4.4-12.16,43.47-119.27,78.72-241.3,117.59-362.1-42.57,108.46-74.15,241.51-118.34,356.38-2,5.52-4.09,11.02-6.18,16.52.83.49,1.67.94,2.54,1.36Z"/>
            <g>
              <g>
                <path class="cls-11" d="M344.67,196.13c-4.84.87-11.5,4.95-16.35,5.83,4.08-3.34,9.55-11.1,11.88-15.83,3.73,1.5,5.35,6.32,4.46,10Z"/>
                <path class="cls-3" d="M342.29,191.81c-6.83-.78-13.88-3.53-19-8.12,5-2.13,9.94-8.28,15.83-5.43-5.13-4.83-6.63-13.63-3.36-19.81,4.15,7.01,18.38,9.26,15.36,19.57,4.43-5.18,11.69-7.82,18.36-6.44-1.33,5.29-5.39,9.85-10.26,12.31,2.63-1.05,5.23.57,6.86,2.89,3.34,4.86,1.34,11.1,1.69,16.57-4.86-.49-9.54-3.45-11.96-7.69,2.94,5.5-2.66,10.75-4.18,15.78-2.62-4.48-8.3-6.56-10.58-11.27-1.08-2.31-.64-6.63,1.23-8.35Z"/>
                <path class="cls-16" d="M349.67,183.06c.32-.82,1.12-4.18-.55-3.71.39,3.45-.63,4.23-2.01,7.39.24.97,2.51-3.21,2.56-3.68Z"/>
                <path class="cls-16" d="M353.79,182.08c-.85-1.38-6.18,5.74-7.31,6.55-.1.69,2.44-1.88,2.83-2,.76-.82,5.2-3.52,4.48-4.55Z"/>
                <path class="cls-16" d="M355.79,187.68c-.3-3.04-10.3,1.87-8.83,1.98,2.5-.6,5.03-1.76,7.6-1.84.04.02.17.07.24.12-.12-.08.15.13.12.11.28.38.95.11.86-.36Z"/>
                <path class="cls-11" d="M356.16,196.36c-1.67-3.93-5.63-6.85-9.83-7.47,1.15-4.63-2.05-9.95-6.81-10.8-1.05-.11-.39.21.11.46,4.1,1.72,6.77,6.21,6.05,10.63-5.14,2.21-4.26,3.81.15.29,3.21.65,6.3,2.21,8.35,4.82.44.24,1.78,3.48,1.98,2.07Z"/>
              </g>
              <path class="cls-12" d="M328.31,201.81c.59-3.34,2.36-6.46,4.92-8.68.23,3.67-3.17,5.86-4.92,8.68Z"/>
              <path class="cls-2" d="M327.25,204.5c1.34-4.54,5.67-8.04,10.39-8.4-2.25,4.42-5.63,7.02-10.39,8.4Z"/>
            </g>
            <g>
              <g>
                <path class="cls-11" d="M307.8,218.24c2.94,3.35,5.38,10.01,8.32,13.36-1.01-4.67-.52-13.27.49-17.95-3.49-1.03-7.36,1.47-8.81,4.59Z"/>
                <path class="cls-3" d="M311.94,216.52c5.29,3.3,11.85,5.32,18.08,4.95-2.35-4.33-2.39-11.49-8.17-12.78,6.37-.53,12.4-5.93,13.56-12.17-6.9,2.64-18.27-3.79-21.95,5.23-.22-6.18-3.89-12.15-9.41-14.93-2.04,4.51-1.73,10.04.34,14.53-1.27-2.22-4.04-2.54-6.5-1.82-5.11,1.57-7.21,7.13-10.55,10.81,3.73,2.39,8.72,2.93,12.83,1.28-5.19,2.24-4.17,9.14-5.93,13.56,4.39-1.71,9.6.02,13.87-2.04,2.07-1.03,4.2-4.34,3.83-6.62Z"/>
                <path class="cls-16" d="M311.63,206.14c.23-.76,1.56-3.6,2.48-2.32-2.2,2.19-1.95,3.4-2.74,6.38-.72.55.03-3.7.25-4.06Z"/>
                <path class="cls-16" d="M309.25,203.12c1.38-.5,1.15,7.56,1.5,8.78-.32.54-.68-2.71-.88-3.02-.08-1.02-1.71-5.43-.62-5.76Z"/>
                <path class="cls-16" d="M304.68,205.97c1.91-1.99,6.26,7.11,5.15,6.39-1.44-1.84-2.58-4.08-4.36-5.6-.04,0-.16-.05-.24-.05.13.01-.18,0-.15,0-.42.12-.74-.46-.4-.74Z"/>
                <path class="cls-11" d="M299.52,211.93c3.4-1.85,7.86-1.69,11.2.24,1.79-3.94,7.07-5.91,10.93-3.83.81.51.15.37-.34.26-3.88-1.09-8.31.59-10.29,4.13,2.41,4.47.87,5.11-.27.12-2.65-1.35-5.72-1.98-8.65-1.28-.45-.08-3.23,1.47-2.57.35Z"/>
              </g>
              <path class="cls-12" d="M316.22,231.5c1.46-2.7,1.97-5.92,1.4-8.94-2.24,2.47-1.05,5.95-1.4,8.94Z"/>
              <path class="cls-2" d="M315.45,234.01c1.61-3.98.51-8.91-2.64-11.82-.89,4.4.04,8.16,2.64,11.82Z"/>
            </g>
            <g>
              <g>
                <path class="cls-11" d="M323.13,264.61c-4.73.77-11.28,4.62-16.01,5.38,4.03-3.18,9.49-10.64,11.85-15.19,3.6,1.53,5.09,6.25,4.16,9.81Z"/>
                <path class="cls-3" d="M320.88,260.36c-6.63-.88-13.45-3.69-18.35-8.24,4.9-1.99,9.82-7.88,15.5-5.01-4.91-4.79-6.21-13.38-2.91-19.33,3.91,6.9,17.72,9.34,14.6,19.32,4.4-4.96,11.51-7.4,17.98-5.94-1.39,5.12-5.42,9.49-10.2,11.8,2.57-.97,5.08.65,6.62,2.93,3.16,4.79,1.11,10.83,1.35,16.16-4.72-.57-9.22-3.53-11.5-7.7,2.77,5.4-2.78,10.42-4.35,15.28-2.47-4.41-7.96-6.53-10.09-11.16-1.01-2.26-.51-6.46,1.35-8.1Z"/>
                <path class="cls-16" d="M328.22,251.98c.33-.79,1.16-4.05-.47-3.62.32,3.37-.69,4.11-2.09,7.15.22.95,2.5-3.08,2.56-3.53Z"/>
                <path class="cls-16" d="M332.25,251.1c-.8-1.36-6.12,5.48-7.23,6.25-.11.67,2.41-1.78,2.79-1.9.76-.79,5.12-3.33,4.44-4.35Z"/>
                <path class="cls-16" d="M334.09,256.58c-.24-2.96-10.05,1.63-8.62,1.77,2.45-.54,4.93-1.62,7.43-1.66.04.02.17.07.23.12-.12-.08.14.13.12.11.27.38.92.12.84-.34Z"/>
                <path class="cls-11" d="M334.29,265.03c-1.55-3.85-5.35-6.77-9.44-7.45,1.21-4.49-1.82-9.72-6.43-10.63-1.02-.13-.38.2.1.45,3.96,1.74,6.48,6.16,5.7,10.45-5.04,2.06-4.21,3.63.14.29,3.11.69,6.09,2.27,8.04,4.84.42.24,1.67,3.42,1.89,2.05Z"/>
              </g>
              <path class="cls-12" d="M307.11,269.84c.63-3.24,2.41-6.24,4.94-8.36.16,3.58-3.19,5.65-4.94,8.36Z"/>
              <path class="cls-2" d="M306.02,272.45c1.38-4.4,5.66-7.73,10.26-7.99-2.27,4.26-5.6,6.73-10.26,7.99Z"/>
            </g>
            <g>
              <g>
                <path class="cls-11" d="M283.88,295.16c2.83,3.81,4.83,11.09,7.67,14.9-.67-5.05.61-14.13,2.08-19-3.62-1.4-7.94.92-9.75,4.1Z"/>
                <path class="cls-3" d="M288.42,293.69c5.33,3.96,12.11,6.68,18.75,6.83-2.11-4.8-1.53-12.4-7.56-14.28,6.8-.01,13.67-5.22,15.44-11.74-7.55,2.2-19.06-5.61-23.74,3.65.3-6.57-3.07-13.23-8.68-16.67-2.55,4.6-2.71,10.5-.9,15.45-1.16-2.47-4.07-3.05-6.74-2.5-5.56,1.22-8.27,6.94-12.14,10.56,3.75,2.86,9,3.87,13.51,2.48-5.7,1.93-5.23,9.33-7.48,13.87,4.81-1.43,10.18.86,14.89-.96,2.28-.91,4.83-4.25,4.64-6.7Z"/>
                <path class="cls-16" d="M289,282.66c.32-.79,1.97-3.68,2.84-2.25-2.55,2.18-2.35,3.4-3.46,6.53-.81.52.35-3.92.62-4.28Z"/>
                <path class="cls-16" d="M286.74,279.24c1.51-.41.56,8.13.82,9.45-.38.55-.48-2.94-.67-3.28,0-1.08-1.34-5.91-.15-6.16Z"/>
                <path class="cls-16" d="M281.64,281.87c2.22-1.94,6.02,8.12,4.91,7.22-1.37-2.08-2.39-4.56-4.14-6.32-.04,0-.17-.07-.25-.08.14.02-.19,0-.16,0-.45.09-.74-.55-.36-.82Z"/>
                <path class="cls-11" d="M275.65,287.74c3.77-1.67,8.49-1.11,11.86,1.23,2.25-4.03,8.02-5.65,11.93-3.12.81.61.14.4-.38.25-4.02-1.5-8.87-.1-11.28,3.49,2.16,4.95.48,5.5-.3.11-2.69-1.67-5.9-2.6-9.07-2.12-.47-.12-3.56,1.28-2.76.15Z"/>
              </g>
              <path class="cls-12" d="M291.66,309.96c1.79-2.74,2.6-6.11,2.27-9.36-2.59,2.43-1.64,6.22-2.27,9.36Z"/>
              <path class="cls-2" d="M290.63,312.56c2.06-4.08,1.32-9.41-1.77-12.78-1.33,4.6-.67,8.66,1.77,12.78Z"/>
            </g>
            <path class="cls-12" d="M340.08,161.55c2.48-9.42,10.65-17.09,20.21-18.97-4.32,8.46-11.76,14.62-20.21,18.97Z"/>
            <path class="cls-12" d="M351.37,126.65c2.24-8.68,9.83-15.73,18.65-17.32-4.76,7.23-11.07,13.14-18.65,17.32Z"/>
            <path class="cls-12" d="M340.34,153.5c-5.16-5.92-6.85-14.67-4.24-22.09,4.19,6.29,6.42,14.84,4.24,22.09Z"/>
            <path class="cls-12" d="M356.09,113.26c-4.56-9.99,1.88-20.61,8.07-28.4.45,10.41-1.56,20.25-8.07,28.4Z"/>
            <path class="cls-2" d="M303.71,272.01c1.99-12.59-5.21-25.77-16.88-30.89,4.6,10.79,10.76,20.88,16.88,30.89Z"/>
            <path class="cls-3" d="M341.22,152.05c-2.02-6.6-1.47-13.95,1.53-20.17,1.21,1.5,1.52,3.23.88,5.06.13-1.56.88-3.86,1.9-5.05,1.29,2.3.46,5.16-.39,7.65-1.59,4.64-2.32,7.87-3.91,12.51Z"/>
          </g>
          <path class="cls-12" d="M259.97,352.67c-7.93-9.6-12.13-22.22-11.54-34.66,9.49,10.43,12.22,20.57,11.54,34.66Z"/>
          <path class="cls-12" d="M241.52,448.1c2.87-14.42,12.59-27.32,25.65-34.06-5.53,13.9-14.1,24.56-25.65,34.06Z"/>
          <path class="cls-12" d="M242.28,405.45c-21.85-22.45-34.53-53.57-34.6-84.9,17.92,26.18,29.78,53.54,34.6,84.9Z"/>
          <path class="cls-12" d="M282.06,97.62c-.07-2.29-.47-4.58-1.27-6.73-.12-.32-.48-.43-.75-.2-2.8,2.46-5.03,5.55-6.54,8.95-1.52,3.4-2.35,7.07-2.38,10.8-.01,2.09.24,4.17.72,6.2.06.26.46.15.4-.11-.78-3.56-.66-7.27.09-10.83.75-3.54,2.2-6.92,4.29-9.88,1.03-1.47,2.22-2.83,3.54-4.04,1.15,3.55,1.22,7.37.55,11.03-.72,3.95-2.29,7.69-4.19,11.21-.53.98-1.09,1.95-1.66,2.91-.29.48-.59.95-.87,1.43-.29.51-.55,1.03-.83,1.54-.23.42.35.73.62.36.31-.42.63-.84.93-1.26.29-.41.55-.86.81-1.29.53-.88,1.05-1.77,1.55-2.67.99-1.79,1.88-3.63,2.65-5.53,1.52-3.78,2.47-7.83,2.35-11.92Z"/>
          <path class="cls-12" d="M227.9,107.83c-.63-1.73-1.41-3.41-2.33-5.01-1.84-3.17-4.22-6.03-7.02-8.4-.8-.68-1.63-1.31-2.5-1.91-.95-.65-2.06-1.3-3.26-1.17-.24.03-.44.18-.44.44-.08,3.26.28,6.56,1.35,9.66.94,2.73,2.43,5.31,4.5,7.35,1.12,1.11,2.42,2.03,3.82,2.75.3.16.57-.29.27-.46-2.35-1.31-4.3-3.35-5.74-5.6-1.62-2.54-2.56-5.42-3.01-8.38-.25-1.61-.33-3.24-.31-4.87.82.06,1.56.5,2.23.96.73.49,1.43,1.02,2.1,1.58,1.37,1.13,2.64,2.39,3.8,3.74,2.28,2.67,4.12,5.76,5.39,9.03.18.47.35.94.51,1.41.16.48.34.94.49,1.42.31.95.56,1.92.82,2.88.07.27.52.23.5-.07-.14-1.81-.56-3.64-1.18-5.34Z"/>
          <path class="cls-12" d="M260.43,159.67c-.04-.37-.41-.66-.77-.44-3.02,1.85-5.63,4.32-7.7,7.2-2.04,2.83-3.56,6.06-4.36,9.45-.46,1.93-.66,3.9-.63,5.88,0,.27.4.27.42,0,.21-3.38,1.07-6.79,2.48-9.87,1.41-3.09,3.36-5.92,5.8-8.29,1.17-1.14,2.45-2.16,3.81-3.05.24,3.82-.61,7.64-2.14,11.14-1.66,3.79-4.09,7.18-6.83,10.25-.76.86-1.56,1.69-2.35,2.52-.4.42-.77.87-1.17,1.3-.41.43-.8.87-1.19,1.32-.25.29.12.64.41.41.43-.34.85-.68,1.26-1.04.17-.15.34-.32.52-.47.22-.19.45-.35.66-.55.74-.72,1.46-1.47,2.16-2.23,1.43-1.56,2.77-3.19,4-4.92,2.44-3.45,4.36-7.32,5.23-11.47.49-2.34.66-4.75.39-7.13Z"/>
        </g>
        <g>
          <g>
            <g>
              <path class="cls-19" d="M212.04,334.27s-25.93,86.93-51.09,82.1c-25.16-4.83-10.17-30.5,12.2-64.05,22.37-33.55,29.74-40.16,34.06-44.99,4.32-4.83,20.84-21.35,23.64-23.64s27.45-15.25,28.72-14.49c1.27.76-6.61,8.39-6.61,8.39,0,0,12.96-6.61,14.74-4.58,1.78,2.03-11.69,10.68-11.69,10.68,0,0,11.18-6.1,13.22-4.07s-25.16,20.84-25.16,20.84c0,0,22.37-13.22,25.16-10.93,2.8,2.29-22.62,17.79-25.42,21.35s-17.54,19.06-31.77,23.38Z"/>
              <path class="cls-1" d="M245.57,299.49c-.03-.16-.18-.26-.34-.28-.15-.02-.28.06-.41.13-.33.16-.67.36-.96.59-.35.27-.68.55-.98.88-.09.1-.11.25-.02.35.08.1.23.15.35.07.61-.42,1.25-.81,1.91-1.15.08-.04.17-.08.25-.13.16-.09.24-.27.21-.45Z"/>
              <path class="cls-1" d="M257.19,283.29c-.13-.22-.38-.26-.6-.16-2.4,1.13-4.74,2.39-6.99,3.8-2.26,1.42-4.43,2.97-6.49,4.67-.57.47-1.13.95-1.66,1.45-.28.26-.54.53-.81.81-.26.26-.53.52-.67.86-.05.13.1.27.23.23.31-.1.56-.32.81-.52.26-.21.52-.42.78-.62.51-.4,1.01-.82,1.52-1.23,1.01-.82,2.04-1.61,3.09-2.38,2.13-1.56,4.36-2.99,6.66-4.27,1.3-.72,2.62-1.4,3.97-2.03.21-.1.27-.41.16-.6Z"/>
              <path class="cls-1" d="M253.93,276.42c-.12-.2-.34-.27-.55-.23-.37.07-.71.25-1.05.41-.31.15-.62.29-.93.44-.63.3-1.25.62-1.87.93-1.24.64-2.46,1.31-3.67,2-2.41,1.39-4.76,2.9-7.01,4.54-1.28.94-2.54,1.9-3.69,2.98-.28.27.09.77.42.55,1.15-.77,2.27-1.59,3.41-2.39,1.13-.79,2.27-1.57,3.43-2.31,2.33-1.5,4.73-2.9,7.19-4.18.7-.36,1.4-.72,2.1-1.06.34-.17.68-.33,1.03-.49.39-.18.76-.35,1.1-.61.17-.13.18-.42.08-.6Z"/>
            </g>
            <g>
              <path class="cls-19" d="M293.37,312.15s11.65,89.96,37.26,89.23c25.61-.73,14.93-28.48-1.77-65.18-16.7-36.7-22.91-44.41-26.41-49.87-3.49-5.46-17.15-24.42-19.54-27.12-2.39-2.71-24.65-19.46-26.03-18.91-1.38.55,5.18,9.34,5.18,9.34,0,0-11.74-8.6-13.82-6.88-2.08,1.72,9.83,12.41,9.83,12.41,0,0-10.06-7.81-12.39-6.13s21.5,24.61,21.5,24.61c0,0-19.96-16.63-23.09-14.82-3.13,1.81,19.48,21.19,21.67,25.15,2.19,3.96,14.25,21.63,27.61,28.18Z"/>
              <path class="cls-1" d="M265.85,272.44c.05-.15.22-.23.38-.23.15,0,.27.11.39.19.3.22.6.47.86.74.31.32.58.65.82,1.03.07.11.07.26-.04.35-.09.08-.26.11-.35.01-.53-.52-1.1-1-1.7-1.45-.07-.06-.16-.11-.23-.17-.14-.12-.2-.3-.13-.48Z"/>
              <path class="cls-1" d="M256.98,254.58c.16-.2.42-.19.62-.06,2.19,1.5,4.29,3.12,6.29,4.87,2,1.76,3.89,3.64,5.65,5.65.49.55.96,1.11,1.41,1.7.23.3.45.61.67.93.21.3.44.6.52.96.03.14-.14.25-.26.19-.29-.15-.5-.4-.71-.64-.22-.25-.45-.49-.68-.74-.44-.48-.87-.97-1.3-1.46-.86-.98-1.75-1.92-2.67-2.84-1.85-1.88-3.82-3.65-5.89-5.28-1.16-.92-2.36-1.8-3.59-2.64-.2-.13-.2-.45-.06-.62Z"/>
              <path class="cls-1" d="M261.29,248.32c.15-.18.38-.21.58-.13.35.13.66.36.97.57.28.19.56.39.84.58.57.4,1.13.81,1.69,1.22,1.12.83,2.22,1.68,3.3,2.56,2.16,1.76,4.24,3.63,6.19,5.61,1.11,1.13,2.2,2.28,3.16,3.54.24.31-.21.75-.51.48-1.02-.94-1.99-1.94-2.98-2.91-.99-.96-1.99-1.91-3.02-2.83-2.06-1.86-4.2-3.62-6.42-5.28-.63-.47-1.26-.93-1.91-1.38-.31-.22-.62-.44-.94-.65-.35-.24-.7-.46-.99-.78-.15-.16-.11-.45.02-.6Z"/>
            </g>
          </g>
          <path class="cls-1" d="M176.64,345.31c-.29.2-.6.39-.83.66-.24.27-.47.54-.7.82-.47.59-.93,1.18-1.38,1.78-.86,1.17-1.69,2.37-2.5,3.57-1.62,2.41-3.15,4.89-4.61,7.4-1.46,2.51-2.85,5.06-4.16,7.66-1.3,2.58-2.53,5.21-3.68,7.86-.59,1.37-1.18,2.75-1.71,4.14-.26.68-.53,1.35-.74,2.04-.11.35-.23.69-.32,1.04-.1.36-.15.71-.24,1.06-.05.17-.1.34-.14.51-.04.19-.04.39-.06.58-.02.36.44.41.62.17.1-.14.21-.28.29-.43.08-.16.15-.34.23-.51.15-.33.35-.62.5-.95.32-.69.62-1.39.91-2.09.13-.33.27-.65.4-.97.07-.16.14-.32.2-.49,0-.01.02-.05.03-.07.02-.04.03-.08.05-.12.05-.11.09-.22.14-.34.14-.34.28-.67.42-1.01.07-.16.14-.32.2-.49,0,0,0-.02.02-.04.01-.03.03-.08.04-.09.04-.09.08-.18.12-.28,1.13-2.65,2.33-5.27,3.61-7.85,1.28-2.59,2.63-5.15,4.05-7.67,1.42-2.52,2.93-4.99,4.47-7.43,1.53-2.43,3.2-4.78,4.68-7.24.18-.31.28-.66.39-1,.05-.16-.15-.32-.29-.23Z"/>
          <path class="cls-1" d="M340.59,366.32c-.08-.59-.17-1.18-.22-1.77-.02-.31-.1-.63-.16-.94-.06-.3-.07-.6-.12-.9-.19-1.19-.46-2.37-.75-3.54-.59-2.34-1.32-4.64-2.12-6.91-1.63-4.58-3.55-9.06-5.83-13.35-.64-1.2-1.32-2.37-2.03-3.52-.71-1.16-1.45-2.3-2.28-3.38-.27-.36-.82-.06-.61.36,1.06,2.17,2.23,4.28,3.3,6.45,1.06,2.14,2.09,4.29,3.05,6.48.12.28.24.55.36.83.05.12.1.23.15.35.03.06.05.12.08.18,0,0,.07.17.08.19.23.56.46,1.11.68,1.67.44,1.1.86,2.2,1.25,3.31.82,2.27,1.54,4.57,2.25,6.87.39,1.27.75,2.56,1.15,3.82.1.31.21.62.33.93.13.32.21.67.3,1.01.09.32.22.62.31.93.1.34.19.67.29,1.01.08.29.59.25.55-.07Z"/>
        </g>
      </g>
      <g>
        <polygon class="cls-6" points="96.1 243.08 97.16 250.92 104.5 252.17 97.42 253.91 95.73 260.74 94.63 253.58 87.87 252.69 94.86 250.9 96.1 243.08"/>
        <polygon class="cls-6" points="352.31 37.19 353.37 45.03 360.72 46.28 353.64 48.02 351.94 54.85 350.85 47.69 344.09 46.8 351.07 45.02 352.31 37.19"/>
        <polygon class="cls-6" points="140.32 31.85 141.39 39.69 148.73 40.94 141.65 42.68 139.96 49.51 138.86 42.35 132.1 41.47 139.09 39.68 140.32 31.85"/>
        <polygon class="cls-6" points="391.96 242.57 393.03 250.41 400.37 251.66 393.29 253.4 391.6 260.23 390.5 253.07 383.74 252.18 390.73 250.39 391.96 242.57"/>
        <path class="cls-10" d="M94.86,191.68c0,1.68-1.37,3.05-3.05,3.05s-3.05-1.37-3.05-3.05,1.37-3.05,3.05-3.05,3.05,1.37,3.05,3.05Z"/>
        <path class="cls-10" d="M273.29,25.44c0,1.68-1.37,3.05-3.05,3.05s-3.05-1.37-3.05-3.05,1.37-3.05,3.05-3.05,3.05,1.37,3.05,3.05Z"/>
        <path class="cls-10" d="M408.26,218.37c0,1.68-1.37,3.05-3.05,3.05s-3.05-1.37-3.05-3.05,1.37-3.05,3.05-3.05,3.05,1.37,3.05,3.05Z"/>
        <path class="cls-10" d="M119.26,339.61c0,1.68-1.37,3.05-3.05,3.05s-3.05-1.37-3.05-3.05,1.37-3.05,3.05-3.05,3.05,1.37,3.05,3.05Z"/>
        <circle class="cls-10" cx="369.38" cy="345.71" r="3.05"/>
        <path class="cls-10" d="M85.71,119.24c0,1.68-1.37,3.05-3.05,3.05s-3.05-1.37-3.05-3.05,1.37-3.05,3.05-3.05,3.05,1.37,3.05,3.05Z"/>
        <path class="cls-10" d="M381.58,138.3c0,1.68-1.37,3.05-3.05,3.05s-3.05-1.37-3.05-3.05,1.37-3.05,3.05-3.05,3.05,1.37,3.05,3.05Z"/>
      </g>
    </g>
  </g>
</svg>