<?xml version="1.0" encoding="UTF-8"?>
<svg id="Layer_2" data-name="Layer 2" xmlns="http://www.w3.org/2000/svg" viewBox="0 0 917.52 917.52">
  <defs>
    <style>
      .cls-1 {
        fill: #e0e0e0;
      }

      .cls-1, .cls-2 {
        stroke-width: 0px;
      }

      .cls-2 {
        fill: #9e9e9e;
      }
    </style>
  </defs>
  <g id="Objects">
    <g>
      <path class="cls-1" d="M917.52,458.76c0,128.36-52.72,244.4-137.68,327.66-7.47,7.32-15.2,14.39-23.16,21.19-3.17,2.71-6.37,5.39-9.62,8-.34.28-.67.54-1.01.8-11.37,9.16-23.18,17.8-35.42,25.83-72.3,47.59-158.86,75.27-251.88,75.27s-179.58-27.68-251.88-75.27c-12.23-8.04-24.05-16.67-35.42-25.83-.34-.26-.67-.53-1.01-.8-3.25-2.61-6.45-5.29-9.62-8-7.96-6.8-15.69-13.88-23.16-21.19C52.72,703.15,0,587.12,0,458.76,0,205.39,205.39,0,458.76,0s458.76,205.39,458.76,458.76Z"/>
      <path class="cls-2" d="M746.06,816.41c-11.37,9.16-23.18,17.8-35.42,25.83-72.3,47.59-158.86,75.27-251.88,75.27s-179.58-27.68-251.88-75.27c-12.23-8.04-24.05-16.67-35.42-25.83,7.04-66.61,51.08-124.36,114.8-148.25l103.85-38.94v-38.13c-7.75-4.89-14.75-10.23-21.11-15.88-86.46,12.74-135.68-33.23-135.68-33.23,0,0,33.19-39.63,33.22-145.98v-68.83c0-104.2,87.41-192.2,192.21-192.2s192.21,88,192.21,192.2v68.83c.04,106.35,33.22,145.98,33.22,145.98,0,0-49.53,46.2-136,33.46-6.27,5.55-13.18,10.81-20.8,15.63v38.15l103.87,38.94c63.71,23.89,107.75,81.64,114.79,148.25Z"/>
    </g>
  </g>
</svg>