<?xml version="1.0" encoding="UTF-8"?>
<svg id="Layer_2" data-name="Layer 2" xmlns="http://www.w3.org/2000/svg" viewBox="0 0 328.58 341.96">
  <defs>
    <style>
      .cls-1 {
        fill: #050505;
        stroke-width: 0px;
      }
    </style>
  </defs>
  <g id="Layer_1-2" data-name="Layer 1">
    <g>
      <path class="cls-1" d="M198.97,341.96c-2.08-.54-4.15-1.07-6.23-1.62-22.87-6.01-45.75-11.96-68.6-18.06-7.83-2.09-15.55-4.57-23.34-6.78-6.47-1.84-12.92-1.75-19.29.55,1.95,8.01,1.71,8.39-6.09,10.44-8.26,2.18-16.5,4.44-24.77,6.6-10.19,2.66-18.57-2.14-21.28-12.23-8.29-30.88-16.55-61.77-24.81-92.66-1.41-5.25-2.91-10.49-4.12-15.79-1.97-8.62,2.8-16.81,11.29-19.22,9.83-2.79,19.72-5.35,29.6-7.95,3.52-.93,4.51-.14,6.56,4.68,6.41-.99,12.72-2.29,19.1-2.89,14.2-1.32,26.18,3.71,36.25,13.58,3.34,3.27,6.72,6.52,9.89,9.95,10.43,11.26,22.98,18.38,38.06,21.92,20.53,4.83,40.82,10.67,61.18,16.18,13.44,3.64,19.65,11.94,20.12,26.97,3.48-1.79,6.8-3.47,10.09-5.19,15.85-8.27,31.68-16.57,47.54-24.82,10.06-5.23,19.88-4.5,28.83,2.28,14.1,10.67,12.4,30.36-3.22,38.6-20.82,10.99-41.71,21.83-62.57,32.73-12.89,6.73-25.79,13.47-38.69,20.17-1.79.93-3.66,1.71-5.5,2.56h-10.02ZM79.35,308.25c10.1-3.39,19.72-1.93,29.34,1.08,10.16,3.19,20.36,6.32,30.65,9.03,19.1,5.03,38.29,9.73,57.45,14.57,6.4,1.62,12.1.66,18.12-2.61,20.86-11.36,42.04-22.12,63.09-33.11,11.51-6.01,23.08-11.91,34.5-18.09,9.79-5.3,10.75-17.35,2.17-24.47-5.89-4.89-13.8-5.62-20.92-1.9-16.53,8.62-33.06,17.24-49.57,25.91-6.58,3.45-13.45,6.52-19.56,10.68-7.66,5.21-15.53,6.75-24.34,4.38-14.9-4-29.81-7.99-44.7-11.99-6.22-1.67-12.42-3.37-18.64-5.07-2.53-.69-3.93-2.36-3.21-4.93.69-2.47,2.57-3.51,5.2-2.76.53.15,1.09.21,1.63.35,15.97,4.29,31.94,8.61,47.92,12.86,6.11,1.62,12.19,3.58,18.42,4.48,10.24,1.47,18.91-6.88,17.33-16.4-1.27-7.67-6.48-11.84-13.71-13.78-16.73-4.48-33.46-8.93-50.18-13.42-8.04-2.16-16.19-4-24.04-6.7-11.74-4.02-20.89-11.99-29.48-20.7-4.68-4.75-9.32-9.65-14.59-13.67-13.2-10.07-27.67-7.75-42.36-3.72,9.87,36.81,19.63,73.23,29.48,109.98ZM40.35,193.84c-8.09,2.17-16,4.32-23.91,6.42-7.66,2.04-9.62,5.36-7.6,12.91,4.83,18.01,9.63,36.02,14.46,54.03,4.63,17.26,9.26,34.51,13.93,51.76,1.34,4.94,5.13,7.64,9.53,6.8,1.94-.37,3.83-1.02,5.88-1.58-.17-.79-.27-1.43-.44-2.05-2.99-11.26-6.01-22.52-8.99-33.78-.91-3.42-.03-5.47,2.53-6.18,2.46-.68,4.27.73,5.23,4.22,1.27,4.6,2.45,9.22,3.69,13.83,1.95,7.25,3.91,14.49,5.92,21.91,4.6-1.26,8.83-2.42,13.18-3.6-11.18-41.7-22.26-83.05-33.42-124.67Z"/>
      <path class="cls-1" d="M124.9,145.02c1.02,2.65,1.77,4.83,2.68,6.93,14.4,33.15,47.79,53.25,84.66,50.99,34.31-2.1,64.89-26.65,75.1-60.28,1.63-5.36,2-5.63,7.73-5.64,3.67,0,7.35,0,11.02,0,5.62,0,7.16,1.79,5.66,7.13-11.61,41.27-37.84,68.48-79.34,79.4-57.09,15.03-115.66-19.23-131.68-76.02-.21-.74-.49-1.47-.83-2.5-2.49,0-5.07.29-7.54-.11-1.53-.25-3.51-1.22-4.15-2.45-.55-1.07.02-3.39.93-4.43,6.23-7.12,12.63-14.09,19.08-21.01,2.09-2.25,4.25-2.24,6.37.03,6.52,7.01,12.99,14.06,19.29,21.26.83.95,1.17,3.1.68,4.24-.48,1.12-2.22,2.03-3.57,2.35-1.68.4-3.53.1-6.08.1ZM100.88,136.98c4.89-.44,6.05,2.31,6.96,5.87,11.04,42.81,48.64,74.25,92.74,75.89,41,1.53,72.21-16.45,93.28-51.57,4.05-6.74,6.61-14.37,10.1-22.11-2.7,0-4.28.18-5.81-.04-2.5-.36-3.4.8-4.17,3.03-14.29,41.72-55.18,67.47-99.05,62.44-36.93-4.23-68.06-30.34-78.6-65.93-1.62-5.47-.71-6.92,5.29-7.86-3.47-3.8-6.8-7.45-10.26-11.24-3.5,3.84-6.77,7.43-10.49,11.52Z"/>
      <path class="cls-1" d="M311.65,81.96c2.7,0,5.29-.27,7.79.1,1.43.22,3.36,1.18,3.88,2.35.52,1.16.08,3.42-.81,4.44-6.23,7.12-12.64,14.08-19.08,21.01-2.23,2.4-4.33,2.33-6.59-.11-6.35-6.86-12.7-13.73-18.85-20.77-.92-1.05-1.53-3.34-.99-4.41.62-1.24,2.58-2.1,4.13-2.52,1.55-.42,3.31-.09,5.49-.09-.79-2.13-1.42-4.07-2.2-5.94-13.98-33.49-47.47-54.04-84.68-51.99-34.63,1.91-65.72,26.92-75.67,60.87-1.33,4.54-2.05,5.08-6.79,5.09-4.23,0-8.46.03-12.69,0-4.51-.04-6.13-2.03-4.92-6.42C111.2,41.55,137.7,13.89,180.06,3.31c54.97-13.74,109.72,16.46,128.72,69.73,1.01,2.82,1.84,5.7,2.87,8.93ZM116.42,81.87c.19-.51.32-.81.42-1.13,13.28-41.78,54.91-69.62,100.87-64.26,34.89,4.06,67.33,31.03,77.37,65.77.52,1.8.89,4.2.1,5.67-.73,1.37-3.1,1.86-4.87,2.81,3.14,3.43,6.47,7.07,9.9,10.82,3.5-3.86,6.79-7.5,10.29-11.35-4.9-.53-5.53-1.07-6.57-5.28C291.35,34.33,242.57,1.11,190.81,9.37c-40.49,6.46-67.42,30.35-81.35,68.88-.4,1.11-.57,2.31-.89,3.61h7.85Z"/>
      <path class="cls-1" d="M227.93,76.75c8.24,3.07,12.49,12.68,4.27,21.4,9.65,10.52,17.11,22.45,21.15,36.17,1.83,6.21,2.95,12.84,3.02,19.3.15,14.06-8.85,23.51-22.87,23.86-18.46.46-36.96.51-55.42,0-15.97-.45-25.19-12.96-22.94-29.83,2.3-17.26,9.9-32.1,20.74-45.47,1.12-1.38,2.31-2.69,3.63-4.22-3.59-3.18-5.35-7.12-4.41-11.84.92-4.62,3.92-7.6,8.54-9.29-1.89-7.13-3.9-14.14-5.54-21.25-.39-1.7-.2-4.53.86-5.32,1.34-1,4.06-1.04,5.79-.4,2.43.9,4.57,2.69,6.67,4.31,1.59,1.23,2.92,1.33,4.38-.04.4-.38.89-.67,1.33-1.01,7.35-5.56,10.06-5.65,17.37.15,2.53,2,4.37,2.19,6.86.05,1.9-1.63,4.15-3.1,6.51-3.88,4.41-1.45,6.98,1.16,5.83,5.67-1.84,7.18-3.81,14.33-5.77,21.66ZM205.55,169.64s0-.04,0-.06c8.9,0,17.81.16,26.71-.05,8.96-.21,14.4-4.41,15.8-12.36.61-3.45.69-7.18.08-10.61-3.07-17.38-11.35-32.11-23.7-44.6-.9-.91-2.49-1.58-3.77-1.59-9.91-.13-19.82-.12-29.73-.01-1.2.01-2.74.5-3.55,1.33-13.23,13.43-22.32,29.12-24.35,48.11-1.39,13.02,5.02,19.66,18.12,19.83,8.12.1,16.25.02,24.38.02ZM191.89,76.4h27.78c1.27-4.76,2.52-9.41,3.96-14.81-6.12,3.61-10.55,1.01-14.59-2.59-2.39-2.12-4.23-1.95-6.58.1-4.05,3.53-8.49,6.12-14.55,2.46,1.45,5.43,2.7,10.09,3.98,14.84ZM205.65,84.65c-6.12,0-12.24.04-18.35-.02-2.52-.02-4.19,1.05-4.3,3.58-.12,2.7,1.46,3.96,4.2,3.96,12.46-.03,24.92-.03,37.38,0,2.63,0,4.01-1.34,3.95-3.86-.06-2.56-1.66-3.68-4.19-3.67-6.23.03-12.46.01-18.69.02Z"/>
      <path class="cls-1" d="M209.79,122.47v8.89c6.38,2.18,11.95,5.63,11.66,13.33-.26,6.99-5.39,10.28-11.61,12.26.02,2.89-.56,5.69-4.07,5.66-3.42-.04-4.23-2.7-4.14-4.8-3.27-2.3-6.39-3.92-8.69-6.31-1.54-1.61-2.21-4.26-2.75-6.57-.55-2.37.73-4.22,3.2-4.62,2.46-.41,3.82,1,4.63,3.32.59,1.69,1.72,3.2,2.6,4.8.36-.14.73-.28,1.09-.42,0-.72-.05-1.44,0-2.15.35-4.19.25-7.52-5.02-9.34-4.62-1.6-7-6.06-6.56-11.32.45-5.37,3.81-8.6,8.47-10.61,1.76-.76,3.13-1.21,3.43-3.66.15-1.24,2.56-3.09,3.9-3.05,1.29.04,2.59,2.09,3.72,3.4.34.4.12,1.28.15,1.83,2.17,1.1,4.35,1.96,6.27,3.22,3.11,2.05,4.98,5.05,5.43,8.8.3,2.56-.79,4.49-3.4,4.91-2.42.39-3.8-.98-4.57-3.37-.55-1.7-1.76-3.19-2.68-4.78-.36.19-.71.39-1.07.58ZM210.73,139.98c-.25.18-.49.35-.74.53v7.57c.29.12.57.25.86.37.88-1.48,2.42-2.96,2.45-4.46.02-1.32-1.65-2.67-2.57-4.01ZM201.55,122.35c-.29-.15-.57-.3-.86-.44-.84,1.46-2.34,2.93-2.33,4.38.01,1.34,1.65,2.67,2.57,4,.21-.18.41-.35.62-.53v-7.42Z"/>
    </g>
  </g>
</svg>