<?xml version="1.0" encoding="UTF-8"?>
<svg id="Layer_2" data-name="Layer 2" xmlns="http://www.w3.org/2000/svg" viewBox="0 0 342.41 273.62">
  <defs>
    <style>
      .cls-1 {
        fill: #000;
        stroke-width: 0px;
      }
    </style>
  </defs>
  <g id="Layer_1-2" data-name="Layer 1">
    <g>
      <path class="cls-1" d="M13.8,81.96h5.11c49.79,0,99.58,0,149.37,0,6.6,0,9.62,2.08,9.69,6.65.07,4.69-3.13,6.96-9.82,6.96-49.79,0-99.58,0-149.37,0h-4.98c0,1.55,0,2.87,0,4.18,0,48.91,0,97.82,0,146.72,0,9.32,4.09,13.38,13.5,13.38,86.73,0,173.45,0,260.18,0,9.74,0,13.85-4.13,13.85-13.9,0-23.08,0-46.16,0-69.24v-4.46c-1.6.84-2.76,1.37-3.85,2.02-8.45,5.05-16.95,10.03-25.31,15.24-3.63,2.27-6.75,2.16-10.38-.1-12.8-7.97-26.25-15-38.52-23.71-21.17-15.03-31.33-36.3-31.54-62.19-.18-22.46-.05-44.92-.03-67.37,0-5.69,1.06-7.24,6.24-9.31,21.63-8.64,43.28-17.23,64.88-25.96,3.01-1.22,5.65-1.15,8.62.05,21.6,8.71,43.24,17.33,64.89,25.92,3.57,1.41,6.05,3.51,6.03,7.61-.09,25.2.37,50.42-.5,75.59-.69,20.09-9.74,36.87-24.54,50.43-1.74,1.59-2.41,3.11-2.41,5.42.07,26.82.05,53.65.04,80.47,0,16.92-10.32,27.22-27.34,27.23-86.73.01-173.46.01-260.18,0-17.02,0-27.42-10.28-27.42-27.18-.03-59.51-.02-119.03,0-178.54,0-14.07,7.68-24.09,20.35-26.62,1.7-.34,3.47-.4,5.21-.4,48.04-.02,96.09-.02,144.13-.01,4.85,0,7.74,2.09,8.23,5.84.5,3.81-2.11,7.23-5.96,7.67-1.36.16-2.74.07-4.11.07-46.67,0-93.34,0-140.01,0-10.07,0-14.03,3.96-14.04,14.01,0,4.34,0,8.68,0,13.49ZM205.49,75.57s.03,0,.05,0c0,10.23-.29,20.47.06,30.69.74,21.44,10.2,38.29,28.08,50.07,10.19,6.71,20.84,12.74,31.38,18.9,1.05.62,3.12.52,4.21-.11,9.59-5.57,19.15-11.22,28.57-17.06,20.14-12.48,30.56-30.58,30.71-54.33.13-20.58-.03-41.17.1-61.75.02-2.76-.99-3.87-3.41-4.83-18.54-7.31-37.01-14.8-55.56-22.09-1.52-.6-3.69-.59-5.22.01-18.67,7.32-37.25,14.85-55.9,22.2-2.32.91-3.19,2.04-3.15,4.62.16,11.23.07,22.45.07,33.68Z"/>
      <path class="cls-1" d="M75.56,218.85c8.48,0,16.96-.02,25.44,0,5.39.02,8.55,2.51,8.59,6.7.04,4.2-3.23,6.94-8.44,6.94-17.34.03-34.67,0-52.01.01-3.56,0-6.36-1.2-7.59-4.81-1.07-3.12-.11-5.83,2.52-7.53,1.45-.94,3.51-1.24,5.3-1.27,8.73-.12,17.46-.06,26.19-.06Z"/>
      <path class="cls-1" d="M257.79,98.69c6.1-6.14,11.8-11.87,17.5-17.6,4.49-4.51,8.96-9.04,13.49-13.5,3.52-3.45,7.69-3.67,10.55-.67,2.84,2.97,2.6,6.82-.83,10.27-11.61,11.67-23.26,23.32-34.93,34.93-3.93,3.9-7.37,3.87-11.33-.03-5.59-5.52-11.16-11.07-16.67-16.67-3.45-3.5-3.69-7.25-.79-10.24,2.98-3.08,6.92-2.89,10.52.7,4.13,4.11,8.15,8.34,12.49,12.81Z"/>
    </g>
  </g>
</svg>