<?xml version="1.0" encoding="UTF-8"?>
<svg id="Layer_2" data-name="Layer 2" xmlns="http://www.w3.org/2000/svg" viewBox="0 0 359.32 293.48">
  <defs>
    <style>
      .cls-1 {
        fill: #000;
        stroke-width: 0px;
      }
    </style>
  </defs>
  <g id="Layer_1-2" data-name="Layer 1">
    <g>
      <path class="cls-1" d="M119.79,107.82c0-9.76-.02-18.98,0-28.19.01-5.65,2.04-7.73,7.6-7.73,74.71-.01,149.41,0,224.12,0,5.81,0,7.8,2.02,7.8,7.92,0,58.62,0,117.24,0,175.85,0,5.89-1.97,7.88-7.81,7.89-12.1.02-24.2,0-36.29,0-1.35,0-2.71,0-3.95,0-7.15,20.82-19.28,30.41-37.51,29.89-16.1-.46-28.73-11.49-33.88-30H101.69c-7.24,20.97-19.37,30.56-37.56,30-16.13-.5-28.72-11.49-33.84-29.88-5.08,0-10.28.03-15.49,0-9.4-.07-14.77-5.49-14.78-14.94-.02-22.32-.08-44.65.11-66.97.02-2.39,1-5.22,2.5-7.08,15.25-18.93,30.78-37.64,46.06-56.56,5.67-7.03,12.65-10.39,21.71-10.25,14.96.23,29.93.06,44.9.06,1.35,0,2.7,0,4.5,0ZM132.03,107.99v119.45c.75.06,1.24.13,1.73.13,39.92,0,79.83.02,119.75-.04,1.39,0,2.9-.56,4.16-1.23,11.81-6.26,23.57-6.27,35.44-.14,1.57.81,3.48,1.35,5.24,1.36,15.09.11,30.19.06,45.28.06h3.52v-119.59h-215.12ZM107.81,119.88c0,1.63,0,2.98,0,4.32,0,17.7,0,35.41,0,53.11,0,6.55-1.84,8.35-8.49,8.35-27.68,0-55.36,0-83.03,0h-4.03v17.96c5.23,0,10.2,0,15.17,0,6.79,0,8.52,1.77,8.52,8.69,0,6.36.01,12.72,0,19.08-.01,6.28-1.91,8.15-8.31,8.16-5.18,0-10.35,0-15.63,0,0,3.46-.18,6.34.1,9.18.1.99,1.31,2.63,2.06,2.66,5.44.23,10.89.12,16.21.12,4.59-17.99,17.51-29.27,33.81-29.88,18.01-.68,30.68,9.37,37.45,29.9,4.5,0,9.11-.24,13.69.07,3.72.25,4.56-1.16,4.55-4.67-.11-41.02-.07-82.04-.07-123.05v-4.01h-11.98ZM18.88,173.43h76.66v-53.64c-6.26,0-12.24,0-18.22,0-15.74,0-13.7-1.08-23.78,11.25-11.42,13.98-22.85,27.94-34.67,42.39ZM131.92,95.57h215.23v-11.5h-215.23v11.5ZM89.83,257.48c-.02-13.06-10.75-23.83-23.8-23.89-13.24-.06-24.1,10.75-24.08,23.99.02,13.06,10.76,23.84,23.8,23.9,13.23.06,24.1-10.77,24.08-23.99ZM299.43,257.59c.02-13.06-10.65-23.84-23.69-23.96-13.18-.12-24.14,10.72-24.16,23.9-.02,13.18,10.87,24,24.09,23.94,13.03-.05,23.74-10.82,23.75-23.88ZM243.87,239.81h-111.82v11.56h107.72c1.39-3.93,2.71-7.64,4.1-11.56ZM347.18,239.78h-40.09c1.43,4.02,2.78,7.82,4.11,11.55h35.98v-11.55ZM23.72,227.4v-11.51h-11.54v11.51h11.54Z"/>
      <path class="cls-1" d="M293.45,12.01c-19.08,0-38.17,0-57.25,0-1.12,0-2.27.11-3.36-.09-3.21-.61-5.18-2.58-5.18-5.89,0-3.31,1.95-5.29,5.17-5.89,1.09-.21,2.24-.09,3.36-.09,38.17,0,76.34,0,114.51,0,1.12,0,2.27-.11,3.36.09,3.22.6,5.18,2.58,5.18,5.89,0,3.31-1.96,5.29-5.17,5.9-1.09.21-2.24.09-3.36.09-19.08,0-38.17,0-57.25,0Z"/>
      <path class="cls-1" d="M275.25,59.91c-18.96,0-37.92,0-56.88,0-1.25,0-2.52.08-3.73-.13-3.01-.51-5.19-3.16-4.98-6.09.23-3.12,2.02-5.04,5.06-5.64,1.21-.24,2.49-.12,3.73-.12,38.04,0,76.09,0,114.13,0,1.12,0,2.27-.11,3.36.07,3.24.53,5.14,2.47,5.35,5.77.2,3.07-2.18,5.68-5.43,6.07-1.11.13-2.24.06-3.36.06-19.08,0-38.17,0-57.25,0Z"/>
      <path class="cls-1" d="M257.14,35.96c-15.22,0-30.43.04-45.65-.05-1.79-.01-4.22-.17-5.21-1.27-1.38-1.55-2.73-4.39-2.19-6.06.61-1.88,3.16-3.94,5.19-4.36,3.47-.72,7.19-.23,10.81-.23,27.32,0,54.63,0,81.95,0,1,0,2-.04,2.99.01,3.81.19,6.34,2.59,6.34,5.97,0,3.38-2.53,5.9-6.34,5.95-7.61.1-15.22.04-22.83.04-8.36,0-16.71,0-25.07,0Z"/>
      <path class="cls-1" d="M218,167.7c4.75,4.69,8.74,8.6,12.69,12.55,3.37,3.38,3.77,6.84,1.19,9.49-2.71,2.78-6.29,2.44-9.78-1.11-3.9-3.96-7.68-8.03-11.51-12.05-.33.18-.65.35-.98.53,0,2.68.07,5.37-.02,8.05-.12,3.84-2.49,6.39-5.85,6.46-3.5.07-6.06-2.56-6.08-6.6-.06-15.59-.06-31.17,0-46.76.02-4.16,2.36-6.42,6.57-6.47,7.61-.08,15.21-.09,22.82,0,4.16.05,6.43,2.36,6.48,6.57.08,7.61.09,15.21,0,22.82-.05,4.16-2.37,6.34-6.57,6.5-1.37.05-2.74.01-4.11.01-1.23,0-2.45,0-4.85,0ZM221.43,143.94h-11.6v11.53h11.6v-11.53Z"/>
      <path class="cls-1" d="M257.7,143.75v11.98c5.5,0,10.83-.02,16.15,0,4.76.02,7.5,2.16,7.58,5.86.08,3.82-2.76,6.09-7.71,6.11-5.22.02-10.45,0-15.94,0v11.99c5.8,0,11.61-.09,17.42.03,3.77.08,6.29,2.68,6.23,6.05-.06,3.23-2.51,5.6-6.07,5.87-.25.02-.5.01-.75.01-7.35,0-14.71.04-22.06-.01-4.83-.04-7-2.26-7.01-7.19-.03-15.2-.04-30.41,0-45.61.01-4.86,2.23-7.02,7.13-7.06,7.23-.05,14.46-.05,21.68,0,4.37.03,7.08,2.38,7.07,5.99-.01,3.61-2.71,5.93-7.1,5.96-5.46.05-10.92.01-16.64.01Z"/>
      <path class="cls-1" d="M305.63,179.68c5.51,0,10.83-.02,16.16,0,4.74.02,7.49,2.19,7.55,5.89.06,3.72-2.72,6.05-7.37,6.07-7.1.03-14.21.04-21.31,0-5.06-.03-7.2-2.21-7.21-7.36-.03-15.08-.03-30.16,0-45.24.01-5.11,2.17-7.23,7.31-7.26,7.1-.04,14.21-.03,21.31,0,4.45.02,7.15,2.21,7.27,5.79.12,3.72-2.68,6.13-7.27,6.16-5.35.04-10.71,0-16.35,0v11.99c5.73,0,11.54-.03,17.34.01,3.3.02,5.52,1.71,6.15,4.91.6,3.06-.81,5.4-3.72,6.53-1.23.47-2.68.48-4.03.5-5.21.05-10.41.02-15.83.02v11.98Z"/>
      <path class="cls-1" d="M161.7,167.69c0,5.87.03,11.21,0,16.56-.03,4.65-2.35,7.43-6.07,7.37-3.6-.06-5.87-2.76-5.88-7.18-.03-15.21-.04-30.42,0-45.63.01-4.85,2.24-7,7.16-7.03,7.23-.05,14.46-.05,21.69,0,4.36.03,7.07,2.42,7.02,6.04-.04,3.6-2.74,5.88-7.15,5.91-5.46.04-10.91.01-16.57.01v11.98c4.23,0,8.54,0,12.85,0,1.5,0,2.99-.05,4.49.02,3.82.17,6.36,2.55,6.38,5.92.03,3.38-2.5,5.92-6.3,6-5.71.11-11.43.03-17.63.03Z"/>
      <path class="cls-1" d="M65.94,269.49c-6.49.03-11.95-5.33-12.02-11.82-.07-6.69,5.4-12.17,12.09-12.11,6.5.06,11.86,5.49,11.84,12-.02,6.51-5.4,11.9-11.91,11.93Z"/>
      <path class="cls-1" d="M287.44,257.48c.02,6.51-5.32,11.94-11.83,12.01-6.5.07-11.99-5.26-12.1-11.74-.12-6.7,5.32-12.21,12.01-12.19,6.51.02,11.9,5.41,11.92,11.92Z"/>
    </g>
  </g>
</svg>