<?xml version="1.0" encoding="UTF-8"?>
<svg id="Layer_2" data-name="Layer 2" xmlns="http://www.w3.org/2000/svg" viewBox="0 0 382.88 318.55">
  <defs>
    <style>
      .cls-1 {
        fill: #050505;
        stroke-width: 0px;
      }
    </style>
  </defs>
  <g id="Layer_1-2" data-name="Layer 1">
    <g>
      <path class="cls-1" d="M382.88,138.3c-5.98,14.69-11.73,29.47-18.03,44.01-2.9,6.69-4.11,13.35-3.95,20.59.3,13.59.1,27.19.08,40.79-.02,16.55-10.03,26.77-26.45,26.59-3.92-.04-5.85.98-7.24,4.82-3.34,9.23-7.25,18.25-10.99,27.33-5.67,13.77-18.91,19.51-32.73,14.08-12.03-4.73-24-9.63-35.97-14.49-4.02-1.64-5.6-4.61-4.28-7.79,1.38-3.32,4.34-4.29,8.48-2.63,11.65,4.68,23.28,9.42,34.92,14.12,9.11,3.68,15.73.87,19.47-8.29,3.61-8.83,7.15-17.69,10.85-26.85h-115.13c-.07.2-.13.4-.2.6,3.81,1.58,7.61,3.18,11.43,4.73,5.18,2.11,10.4,4.13,15.57,6.28,3.8,1.58,5.32,4.49,4.15,7.58-1.25,3.3-4.4,4.44-8.41,2.82-17.07-6.87-34.09-13.85-51.18-20.64-2.36-.94-5.04-1.48-7.57-1.49-23.33-.11-46.66-.07-69.98-.07-1,0-2,.04-2.99-.02-3.62-.25-5.78-2.32-5.82-5.52-.03-3.2,2.12-5.52,5.69-5.64,4.98-.17,9.98-.06,14.97-.06,3.85,0,7.7,0,11.77,0v-108.54c-1,.62-1.83,1.04-2.55,1.59-16.91,12.74-30.04,28.3-36.43,48.89-1.31,4.2-4.16,5.96-7.45,4.87-3.45-1.15-4.64-3.99-3.32-8.27,6.09-19.78,17.87-35.69,33.42-49.03.93-.8,1.86-1.59,3.26-2.78H32.8v4c0,31.19,0,62.37,0,93.56,0,10.86,4.86,15.68,15.79,15.7,6.99.01,13.98-.12,20.96.06,4.81.12,7.7,4.57,5.2,8.17-1.07,1.54-3.6,2.82-5.52,2.89-7.85.31-15.72.33-23.57.07-14.01-.46-23.89-10.69-24.09-24.84-.15-10.6-.13-21.21.04-31.81.04-2.58-.76-3.72-3.15-4.52-9.64-3.22-16.76-9.23-18.2-19.7-.62-4.48-.07-9.58,1.52-13.81,5.79-15.48,12.28-30.7,18.38-46.06.84-2.13,1.3-4.55,1.32-6.84.11-15.97.05-31.94.06-47.9.01-16.72,10.02-26.8,26.8-26.6,3.65.04,5.45-.88,6.76-4.44,3.43-9.33,7.33-18.49,11.11-27.68C71.88,2.31,84.96-3.36,98.92,1.99c7.08,2.71,14.1,5.59,21.11,8.48,4.02,1.66,5.54,4.66,4.16,7.83-1.44,3.31-4.33,4.21-8.53,2.54-6.93-2.75-13.82-5.61-20.76-8.34-8.09-3.18-14.89-.29-18.2,7.75-3.73,9.06-7.38,18.15-11.21,27.61h115.14c.06-.19.11-.39.17-.58-7.52-3.07-15.03-6.15-22.56-9.2-6.33-2.57-12.69-5.09-19.03-7.65-4.23-1.71-5.9-4.72-4.47-8.02,1.41-3.25,4.37-4.15,8.57-2.45,22.02,8.88,44,17.83,66.05,26.62,2.35.94,5.03,1.49,7.56,1.5,39.3.09,78.59.05,117.89.07,12.68,0,21.98,6.53,25.06,17.72.75,2.72,1.02,5.65,1.06,8.49.12,10.35.09,20.71,0,31.06-.01,1.84.32,3.05,2.24,3.62,10.33,3.09,16.97,9.79,19.69,20.29v8.98ZM144.16,145.72c1.5,1.3,2.52,2.2,3.55,3.09,15.49,13.39,27.28,29.29,33.24,49.13,1.22,4.06-.13,7.08-3.56,8.08-3.19.94-5.86-.76-7.14-4.8-5.8-18.43-16.97-33.08-31.71-45.23-2.34-1.93-4.78-3.74-7.54-5.89v108.89c1.27.06,2.37.15,3.46.15,66.61,0,133.22.01,199.83,0,10.41,0,15.4-4.99,15.4-15.33.01-31.56,0-63.12,0-94.68,0-1.08-.1-2.16-.16-3.39h-205.39ZM131.16,59.39v59.4c1.2-1.75,1.87-2.78,2.6-3.77,5.9-8.07,12.13-15.84,20.38-21.7,4.43-3.14,9.18-5.64,14.7-5.87,10.54-.43,17.24,5.47,21.83,14.17,3.98,7.55,2.66,15.86-3.77,22.7-3.34,3.55-7.39,6.44-11.16,9.66h173.97v-4.38c0-17.95,0-35.91,0-53.86,0-11.68-4.63-16.35-16.24-16.35-66.08,0-132.17,0-198.25,0-1.34,0-2.68,0-4.06,0ZM119.29,118.28v-58.89c-23.83,0-47.4-.01-70.98,0-10.62,0-15.51,4.93-15.52,15.58,0,18.46,0,36.92,0,55.38,0,1.21.11,2.41.17,3.61h42.26c-3.31-2.51-6.43-4.57-9.2-7.03-4.17-3.71-7.36-8.17-8.09-13.91-1.19-9.34,3.34-16.11,10.29-21.47,7.04-5.44,14.76-5.33,22.53-1.56,7.44,3.62,13.25,9.27,18.49,15.51,3.4,4.04,6.54,8.3,10.05,12.78ZM135,134c5.21-.93,9.66-1.49,13.99-2.56,10.19-2.51,20.19-5.65,28.11-13.01,6.04-5.6,5.89-10.95-.05-16.64-3.31-3.17-7.15-4.17-11.29-2.15-2.87,1.41-5.68,3.16-8.1,5.25-9.27,7.98-15.94,18.03-22.66,29.11ZM114.6,133.93c-.51-1.47-.61-2.51-1.16-3.21-6.45-8.33-12.67-16.86-19.6-24.77-2.64-3.02-6.74-5.05-10.55-6.68-4.45-1.91-8.75.32-12.28,5.3-2.82,3.99-3.01,7.86.43,11.54,2.83,3.03,6.21,5.77,9.8,7.84,10.02,5.78,21.21,8.01,33.35,9.97ZM361.1,160.16c.22.07.45.13.67.2,3.09-7.78,6.44-15.46,9.17-23.36,2.54-7.34-1.84-14.23-9.85-16.34v39.5ZM21.37,158.27c-.2,0-.39,0-.59,0-2.75,6.75-5.51,13.49-8.26,20.24-.28.69-.57,1.37-.81,2.08-2.68,7.86,1.78,15.75,9.81,17.11,0-12.7,0-25.37,0-38.04,0-.46-.1-.92-.15-1.38Z"/>
      <path class="cls-1" d="M287,170.22c.42-8.71,1.58-10.91,5.69-10.99,4.08-.08,5.28,2.14,5.8,9.78,3.75,3.16,7.25,5.53,10,8.59,2.78,3.1,2.19,6.88-.59,8.91-2.89,2.11-5.82,1.37-8.46-2.36-2.19-3.09-5.37-4.09-8.52-2.97-1.96.69-3.93,2.96-4.72,4.98-1.37,3.52.97,6.45,5.23,7.42,2.3.53,4.69.71,6.97,1.31,9.06,2.37,14.46,8.43,14.86,16.49.45,9.21-4.25,16.13-13.21,19.43-.47.17-.94.34-1.55.56-.45,4.23,1.32,9.89-5.55,10.66-3.87.43-5.21-2.19-6.07-10.95-5.83-1.63-10.52-4.87-13.33-10.46-2.05-4.07-1.39-7.38,1.74-9.08,3.26-1.77,5.93-.53,8.18,3.82,1.85,3.56,6.03,5.56,10.83,5.1,3.46-.33,6.22-1.65,7.34-5.31,1.18-3.88-.06-7.06-3.79-8.58-1.94-.79-4.06-1.21-6.14-1.53-10.01-1.52-15.92-6.83-17.1-15.48-1.09-8.02,3.66-15.51,12.38-19.34Z"/>
    </g>
  </g>
</svg>